<svg width="350" height="350" viewBox="0 0 350 350" fill="none" xmlns="http://www.w3.org/2000/svg">
<path d="M33.195 74.305C29.17 68.845 23.78 60.585 19.44 53.165C18.915 52.29 18.845 52.29 18.25 52.29C17.585 52.29 16.78 52.5 16.605 52.955C16.57 53.025 16.57 53.095 16.57 53.165C16.57 53.48 16.78 54.005 16.78 54.39V73.29C16.78 74.515 16.71 75.845 16.71 76.405C16.71 77 17.655 77.385 18.285 77.385C18.6 77.385 18.845 77.28 18.845 77.035C18.845 76.23 18.74 74.76 18.74 73.325V55.65C22.24 61.705 27.91 70.35 32.04 76.055C32.39 76.545 32.775 77.385 33.475 77.385C34.28 77.385 35.295 76.72 35.295 76.055C35.295 75.635 35.155 74.655 35.155 74.235V56.42C35.155 55.195 35.225 53.865 35.225 53.305C35.225 52.71 34.28 52.325 33.65 52.325C33.335 52.325 33.09 52.43 33.09 52.675C33.09 53.48 33.195 54.95 33.195 56.385V74.305ZM45.5948 61.53C45.4898 61.32 45.2798 61.18 45.0348 61.18C44.0898 61.18 40.8698 65.59 40.8698 69.755C40.8698 74.585 43.5298 77.56 48.1848 77.56C53.5748 77.56 56.4798 72.87 56.4798 68.425C56.4798 63.175 53.7148 60.06 49.7598 60.06C47.7998 60.06 46.5398 60.83 45.5948 61.53ZM48.1848 75.775C44.8248 75.775 42.7948 73.605 42.7948 69.72C42.7948 66.045 45.6298 61.81 49.5498 61.81C52.7698 61.81 54.5548 64.505 54.5548 68.425C54.5548 72.485 51.6148 75.775 48.1848 75.775ZM76.2732 74.76L72.7032 62.93C72.5632 62.44 72.4582 61.95 72.3882 61.425C72.3532 61.04 71.3732 60.655 70.6732 60.655C70.3232 60.655 70.0082 60.76 69.9732 61.04C69.8682 61.81 69.7282 62.51 69.5182 63.245L65.4932 74.76L62.2032 62.755C62.0632 62.23 61.8882 61.46 61.8182 61.005C61.7482 60.55 61.0482 60.305 60.4182 60.305C59.8932 60.305 59.4382 60.48 59.4382 60.795C59.4382 60.83 59.4382 60.865 59.4732 60.935C59.7532 61.635 60.0682 62.475 60.2432 63L63.8132 75.355C64.0932 76.23 64.0582 76.545 64.4082 76.93C64.6882 77.21 65.2832 77.56 65.7732 77.56C66.1932 77.56 66.5432 77.35 66.6832 76.79C66.8932 76.055 67.0332 75.495 67.3132 74.69L71.1632 63.91L74.5932 75.355C74.7682 75.985 74.7682 76.545 75.1182 76.93C75.3982 77.21 76.0282 77.56 76.5882 77.56C77.0082 77.56 77.3932 77.35 77.5332 76.79C77.7432 76.02 77.9882 75.25 78.1632 74.69L82.1182 63.42C82.3282 62.825 82.7482 61.81 83.0632 61.075C83.0982 61.005 83.0982 60.97 83.0982 60.9C83.0982 60.41 82.2582 60.06 81.6282 60.06C81.2782 60.06 81.0332 60.165 80.9632 60.41C80.7882 61.25 80.5082 62.195 80.2982 62.825L76.2732 74.76ZM89.256 77.175C89.046 78.015 88.206 78.995 87.331 79.59C87.121 79.73 87.051 79.905 87.051 80.045C87.051 80.29 87.226 80.5 87.506 80.5C88.556 80.5 91.251 78.295 91.251 76.02C91.251 75.915 91.216 75.81 91.216 75.705C91.076 74.55 90.376 73.605 89.431 73.605C88.416 73.605 87.926 74.165 87.926 75.215C87.926 75.95 88.416 76.615 88.766 76.895C88.836 76.965 89.116 77.14 89.256 77.175ZM112.539 72.94C112.539 74.165 112.469 75.845 112.469 76.405C112.469 76.965 113.379 77.35 114.009 77.35C114.289 77.35 114.534 77.245 114.534 77.035C114.534 76.23 114.429 74.76 114.429 73.325V61.845L115.794 61.775C116.704 61.74 118.664 61.74 119.154 61.74C119.399 61.74 119.504 61.565 119.504 61.32C119.504 60.83 119.014 60.06 118.454 60.06H118.419C117.929 60.095 116.249 60.235 115.409 60.27L114.429 60.305V56.35C114.429 54.845 115.444 54.11 116.389 54.11C117.159 54.11 118.244 54.39 118.804 55.405C118.944 55.685 119.119 55.79 119.294 55.79C119.784 55.79 120.239 54.985 120.239 54.355C120.239 54.18 120.169 53.97 120.064 53.865C119.049 52.64 117.649 52.29 116.424 52.29C114.394 52.29 112.539 53.725 112.539 56.385V60.375L111.454 60.41H108.864C108.619 60.41 108.514 60.55 108.514 60.76C108.514 61.25 109.004 62.055 109.599 62.055C109.599 62.055 110.824 61.95 111.839 61.915L112.539 61.88V72.94ZM127.558 61.53C127.453 61.32 127.243 61.18 126.998 61.18C126.053 61.18 122.833 65.59 122.833 69.755C122.833 74.585 125.493 77.56 130.148 77.56C135.538 77.56 138.443 72.87 138.443 68.425C138.443 63.175 135.678 60.06 131.723 60.06C129.763 60.06 128.503 60.83 127.558 61.53ZM130.148 75.775C126.788 75.775 124.758 73.605 124.758 69.72C124.758 66.045 127.593 61.81 131.513 61.81C134.733 61.81 136.518 64.505 136.518 68.425C136.518 72.485 133.578 75.775 130.148 75.775ZM143.746 73.29C143.746 73.78 143.676 75.81 143.676 76.37C143.676 76.93 144.586 77.315 145.216 77.315C145.496 77.315 145.741 77.21 145.741 77C145.741 76.195 145.636 74.725 145.636 73.29C145.636 69.3 145.636 67.55 146.126 65.94C146.931 63.385 149.101 61.985 151.096 61.985C151.831 61.985 153.196 62.405 153.686 63.315C153.826 63.56 154.001 63.665 154.176 63.665C154.631 63.665 155.156 62.79 155.156 62.125C155.156 61.215 153.056 60.06 151.201 60.06C148.716 60.06 146.581 61.53 145.671 63.315C145.671 62.475 145.706 61.6 145.706 61.04C145.706 60.48 144.796 60.095 144.166 60.095C143.886 60.095 143.641 60.2 143.641 60.41C143.641 61.215 143.746 63.49 143.746 64.155V73.29ZM178.616 74.025C177.391 75.005 176.131 75.67 175.151 75.67C174.101 75.67 173.821 75.18 173.821 73.22V61.81L175.256 61.74C176.166 61.705 177.776 61.705 178.266 61.705C178.511 61.705 178.616 61.53 178.616 61.285C178.616 60.795 178.126 60.025 177.566 60.025H177.531C177.041 60.06 175.711 60.2 174.871 60.235L173.821 60.27V58.52C173.821 57.68 173.891 55.965 173.891 55.405C173.891 54.845 172.981 54.46 172.386 54.46C172.071 54.46 171.861 54.565 171.861 54.775C171.861 55.58 171.931 57.855 171.931 58.52V60.375H168.816C168.571 60.375 168.466 60.515 168.466 60.725C168.466 61.215 168.956 62.02 169.551 62.02C169.551 62.02 170.776 61.915 171.791 61.88H171.931V73.15C171.931 76.09 172.596 77.56 175.011 77.56C177.321 77.56 179.771 74.655 179.771 73.92C179.771 73.745 179.666 73.605 179.456 73.605C179.316 73.605 179.106 73.675 178.791 73.885L178.616 74.025ZM195.674 76.44C195.674 76.965 196.549 77.35 197.179 77.35C197.494 77.35 197.739 77.245 197.739 77.035C197.739 76.23 197.634 73.745 197.634 73.325V66.605C197.634 63.77 196.969 60.095 192.524 60.095C189.934 60.095 186.924 61.635 185.524 64.47V56.7C185.524 55.86 185.594 53.795 185.594 53.235C185.594 52.675 184.684 52.29 184.054 52.29C183.774 52.29 183.529 52.395 183.529 52.605C183.529 53.41 183.634 55.685 183.634 56.35V72.975C183.634 73.465 183.564 75.845 183.564 76.405C183.564 76.965 184.509 77.35 185.104 77.35C185.419 77.35 185.629 77.245 185.629 77.035C185.594 76.125 185.524 75.005 185.524 73.885V73.325C185.559 71.68 185.559 68.74 186.084 66.955C187.134 63.42 190.074 61.915 192.524 61.915C195.219 61.915 195.744 63.98 195.744 66.745V72.975C195.744 73.78 195.709 75.845 195.674 76.405V76.44ZM205.47 69.965C209.32 69.965 212.4 69.475 214.5 68.845C217.3 67.97 217.825 67.13 217.825 65.1C217.825 62.615 216.355 60.06 212.085 60.06C207.535 60.06 204 64.82 203.405 68.145C203.405 68.145 203.09 68.18 203.02 68.18C202.6 68.18 202.425 68.355 202.425 68.6C202.425 68.915 202.74 69.37 203.16 69.65V70.175C203.16 74.725 205.89 77.56 209.46 77.56C215.165 77.56 217.895 73.43 217.895 72.555C217.895 72.345 217.79 72.205 217.615 72.205C217.405 72.205 217.16 72.345 216.88 72.66C214.99 74.69 212.47 75.81 209.46 75.81C207.08 75.81 205.05 73.885 205.05 70.07V69.965H205.47ZM205.295 68.25C205.785 65.73 208.55 61.74 212.05 61.74C214.5 61.74 215.935 63 215.935 65.065C215.935 66.325 215.76 66.745 213.625 67.34C212.05 67.795 209.565 68.25 206.03 68.25H205.295ZM255.54 73.325C255.54 74.13 255.47 75.845 255.47 76.405C255.47 76.965 256.38 77.35 257.01 77.35C257.29 77.35 257.535 77.245 257.535 77.035C257.535 76.23 257.43 73.745 257.43 73.325V66.605C257.43 63.35 255.96 60.06 252.355 60.06C250.29 60.06 248.12 61.25 246.965 63.455C246.615 61.705 245.39 60.06 242.695 60.06C240.56 60.06 238.285 61.53 237.34 63.84C237.34 62.79 237.375 61.67 237.375 61.11C237.375 60.55 236.465 60.165 235.835 60.165C235.555 60.165 235.31 60.27 235.31 60.48C235.31 61.285 235.415 63.875 235.415 64.54V73.325C235.415 73.815 235.345 75.845 235.345 76.405C235.345 76.965 236.255 77.35 236.885 77.35C237.165 77.35 237.41 77.245 237.41 77.035C237.41 76.23 237.305 74.76 237.305 73.325C237.34 70.945 237.305 68.285 237.865 66.36C238.985 62.58 241.33 61.81 242.695 61.81C244.83 61.81 245.46 63.98 245.46 66.745V73.325C245.46 74.13 245.39 75.845 245.39 76.405C245.39 76.965 246.3 77.35 246.895 77.35C247.21 77.35 247.42 77.245 247.42 77.035C247.42 76.23 247.315 74.655 247.315 73.325V67.62C247.315 64.505 250.08 61.81 252.25 61.81C254.35 61.81 255.54 63.91 255.54 66.745V73.325ZM267.489 61.53C267.384 61.32 267.174 61.18 266.929 61.18C265.984 61.18 262.764 65.59 262.764 69.755C262.764 74.585 265.424 77.56 270.079 77.56C275.469 77.56 278.374 72.87 278.374 68.425C278.374 63.175 275.609 60.06 271.654 60.06C269.694 60.06 268.434 60.83 267.489 61.53ZM270.079 75.775C266.719 75.775 264.689 73.605 264.689 69.72C264.689 66.045 267.524 61.81 271.444 61.81C274.664 61.81 276.449 64.505 276.449 68.425C276.449 72.485 273.509 75.775 270.079 75.775ZM290.713 69.23C293.338 69.86 294.248 70.91 294.248 72.59C294.248 74.235 292.358 75.81 289.488 75.81C287.283 75.81 285.043 75.46 283.993 72.765C283.923 72.59 283.818 72.52 283.678 72.52C283.223 72.52 282.523 73.325 282.523 73.955C282.523 74.515 284.238 77.56 289.488 77.56C293.583 77.56 296.138 75.285 296.138 72.52C296.138 69.65 294.283 68.285 291.308 67.585L287.948 66.78C285.953 66.325 285.218 65.59 285.218 64.61C285.218 62.965 286.968 61.705 289.698 61.705C290.363 61.705 292.743 61.775 293.898 63.49C294.073 63.735 294.178 63.91 294.353 63.91C294.668 63.91 295.368 63.42 295.368 62.58C295.368 62.44 295.333 62.3 295.263 62.23C294.318 61.04 292.358 60.06 289.698 60.06C286.268 60.06 283.363 61.88 283.363 64.54C283.363 66.675 284.658 67.795 287.213 68.39L290.713 69.23ZM309.114 74.025C307.889 75.005 306.629 75.67 305.649 75.67C304.599 75.67 304.319 75.18 304.319 73.22V61.81L305.754 61.74C306.664 61.705 308.274 61.705 308.764 61.705C309.009 61.705 309.114 61.53 309.114 61.285C309.114 60.795 308.624 60.025 308.064 60.025H308.029C307.539 60.06 306.209 60.2 305.369 60.235L304.319 60.27V58.52C304.319 57.68 304.389 55.965 304.389 55.405C304.389 54.845 303.479 54.46 302.884 54.46C302.569 54.46 302.359 54.565 302.359 54.775C302.359 55.58 302.429 57.855 302.429 58.52V60.375H299.314C299.069 60.375 298.964 60.515 298.964 60.725C298.964 61.215 299.454 62.02 300.049 62.02C300.049 62.02 301.274 61.915 302.289 61.88H302.429V73.15C302.429 76.09 303.094 77.56 305.509 77.56C307.819 77.56 310.269 74.655 310.269 73.92C310.269 73.745 310.164 73.605 309.954 73.605C309.814 73.605 309.604 73.675 309.289 73.885L309.114 74.025ZM17.76 100.93C18.565 100.93 19.055 100.405 19.055 99.565C19.055 98.655 18.215 97.64 17.41 97.64C16.535 97.64 16.08 98.2 16.08 99.075C16.08 99.915 16.885 100.93 17.76 100.93ZM16.64 118.325C16.64 118.815 16.57 120.845 16.57 121.405C16.57 121.93 17.515 122.315 18.145 122.315C18.46 122.315 18.67 122.245 18.67 122.035C18.67 121.23 18.565 118.745 18.565 118.325V109.12C18.565 108.28 18.635 106.565 18.635 106.005C18.635 105.48 17.69 105.095 17.06 105.095C16.745 105.095 16.535 105.165 16.535 105.375C16.535 106.18 16.64 108.455 16.64 109.12V118.325ZM45.5743 118.325C45.5743 119.13 45.5043 120.845 45.5043 121.405C45.5043 121.965 46.4143 122.35 47.0443 122.35C47.3243 122.35 47.5693 122.245 47.5693 122.035C47.5693 121.23 47.4643 118.745 47.4643 118.325V111.605C47.4643 108.35 45.9943 105.06 42.3893 105.06C40.3243 105.06 38.1543 106.25 36.9993 108.455C36.6493 106.705 35.4243 105.06 32.7293 105.06C30.5943 105.06 28.3193 106.53 27.3743 108.84C27.3743 107.79 27.4093 106.67 27.4093 106.11C27.4093 105.55 26.4993 105.165 25.8693 105.165C25.5893 105.165 25.3443 105.27 25.3443 105.48C25.3443 106.285 25.4493 108.875 25.4493 109.54V118.325C25.4493 118.815 25.3793 120.845 25.3793 121.405C25.3793 121.965 26.2893 122.35 26.9193 122.35C27.1993 122.35 27.4443 122.245 27.4443 122.035C27.4443 121.23 27.3393 119.76 27.3393 118.325C27.3743 115.945 27.3393 113.285 27.8993 111.36C29.0193 107.58 31.3643 106.81 32.7293 106.81C34.8643 106.81 35.4943 108.98 35.4943 111.745V118.325C35.4943 119.13 35.4243 120.845 35.4243 121.405C35.4243 121.965 36.3343 122.35 36.9293 122.35C37.2443 122.35 37.4543 122.245 37.4543 122.035C37.4543 121.23 37.3493 119.655 37.3493 118.325V112.62C37.3493 109.505 40.1143 106.81 42.2843 106.81C44.3843 106.81 45.5743 108.91 45.5743 111.745V118.325ZM54.0586 123.925C54.0586 125.15 53.9886 126.48 53.9886 127.04C53.9886 127.6 54.8986 127.985 55.5286 127.985C55.8086 127.985 56.0536 127.88 56.0536 127.67C56.0536 126.865 55.9486 125.395 55.9486 123.96V120.11C56.8936 121.72 58.8886 122.525 60.6736 122.525C65.4336 122.525 68.7586 117.555 68.7586 112.27C68.7586 107.72 66.6236 105.06 62.8436 105.06C60.1136 105.06 57.1386 106.81 55.9836 109.4C55.9836 109.4 56.0536 106.67 56.0536 106.11C56.0536 105.55 55.1086 105.165 54.4786 105.165C54.1636 105.165 53.9536 105.27 53.9536 105.48C53.9886 106.285 54.0586 107.685 54.0586 109.12V123.925ZM55.9486 118.5C55.9486 116.12 55.9486 113.775 56.0886 113.18C56.8236 109.505 59.9036 106.81 62.8436 106.81C65.2236 106.81 66.7986 108.7 66.7986 112.445C66.7986 116.715 64.1736 120.845 60.4286 120.845C59.1686 120.845 57.9086 120.25 56.9636 118.955C56.7186 118.57 56.4036 118.43 56.1936 118.43C56.0886 118.43 56.0186 118.465 55.9486 118.5ZM77.5529 106.53C77.4479 106.32 77.2379 106.18 76.9929 106.18C76.0479 106.18 72.8279 110.59 72.8279 114.755C72.8279 119.585 75.4879 122.56 80.1429 122.56C85.5329 122.56 88.4379 117.87 88.4379 113.425C88.4379 108.175 85.6729 105.06 81.7179 105.06C79.7579 105.06 78.4979 105.83 77.5529 106.53ZM80.1429 120.775C76.7829 120.775 74.7529 118.605 74.7529 114.72C74.7529 111.045 77.5879 106.81 81.5079 106.81C84.7279 106.81 86.5129 109.505 86.5129 113.425C86.5129 117.485 83.5729 120.775 80.1429 120.775ZM93.7412 118.29C93.7412 118.78 93.6712 120.81 93.6712 121.37C93.6712 121.93 94.5812 122.315 95.2112 122.315C95.4912 122.315 95.7362 122.21 95.7362 122C95.7362 121.195 95.6312 119.725 95.6312 118.29C95.6312 114.3 95.6312 112.55 96.1212 110.94C96.9262 108.385 99.0962 106.985 101.091 106.985C101.826 106.985 103.191 107.405 103.681 108.315C103.821 108.56 103.996 108.665 104.171 108.665C104.626 108.665 105.151 107.79 105.151 107.125C105.151 106.215 103.051 105.06 101.196 105.06C98.7112 105.06 96.5762 106.53 95.6662 108.315C95.6662 107.475 95.7012 106.6 95.7012 106.04C95.7012 105.48 94.7912 105.095 94.1612 105.095C93.8812 105.095 93.6362 105.2 93.6362 105.41C93.6362 106.215 93.7412 108.49 93.7412 109.155V118.29ZM116.375 119.025C115.15 120.005 113.89 120.67 112.91 120.67C111.86 120.67 111.58 120.18 111.58 118.22V106.81L113.015 106.74C113.925 106.705 115.535 106.705 116.025 106.705C116.27 106.705 116.375 106.53 116.375 106.285C116.375 105.795 115.885 105.025 115.325 105.025H115.29C114.8 105.06 113.47 105.2 112.63 105.235L111.58 105.27V103.52C111.58 102.68 111.65 100.965 111.65 100.405C111.65 99.845 110.74 99.46 110.145 99.46C109.83 99.46 109.62 99.565 109.62 99.775C109.62 100.58 109.69 102.855 109.69 103.52V105.375H106.575C106.33 105.375 106.225 105.515 106.225 105.725C106.225 106.215 106.715 107.02 107.31 107.02C107.31 107.02 108.535 106.915 109.55 106.88H109.69V118.15C109.69 121.09 110.355 122.56 112.77 122.56C115.08 122.56 117.53 119.655 117.53 118.92C117.53 118.745 117.425 118.605 117.215 118.605C117.075 118.605 116.865 118.675 116.55 118.885L116.375 119.025ZM135.148 105.935C135.148 105.41 134.203 105.06 133.573 105.06C133.223 105.06 132.978 105.165 132.978 105.375C132.978 105.69 132.943 106.6 132.908 107.65C132.173 105.9 130.423 105.06 128.708 105.06C124.578 105.06 120.133 109.96 120.133 115.875C120.133 120.25 122.338 122.56 125.698 122.56C128.358 122.56 131.158 121.02 132.838 117.59C132.943 119.165 133.783 122.385 134.763 122.385C135.393 122.385 135.988 121.58 135.988 121.055C135.988 120.95 135.953 120.88 135.918 120.81C134.693 118.92 134.693 116.19 134.693 115.245C134.693 113.53 134.833 108.035 135.148 106.005V105.935ZM132.908 108.49C132.873 109.68 132.873 111.115 132.838 111.815C132.593 117.24 129.198 120.81 125.698 120.81C123.633 120.81 122.128 119.305 122.128 115.7C122.128 110.695 125.628 106.74 128.743 106.74C129.828 106.74 131.088 107.335 131.963 108.7C132.033 108.805 132.138 108.84 132.278 108.84C132.488 108.84 132.803 108.7 132.908 108.49ZM153.634 118.325C153.634 119.13 153.564 120.845 153.564 121.405C153.564 121.965 154.474 122.35 155.104 122.35C155.384 122.35 155.629 122.245 155.629 122.035C155.629 121.23 155.524 118.745 155.524 118.325V111.57C155.524 108.735 154.859 105.06 150.414 105.06C147.824 105.06 144.849 106.6 143.449 109.435C143.449 108.455 143.484 106.67 143.484 106.11C143.484 105.55 142.574 105.165 141.944 105.165C141.664 105.165 141.419 105.27 141.419 105.48C141.419 106.285 141.524 108.56 141.524 109.225V118.325C141.524 118.815 141.454 120.845 141.454 121.405C141.454 121.965 142.364 122.35 142.994 122.35C143.274 122.35 143.519 122.245 143.519 122.035C143.519 121.335 143.414 120.11 143.414 118.815V118.325C143.449 116.295 143.414 113.775 143.974 111.92C145.024 108.385 147.964 106.88 150.414 106.88C153.039 106.88 153.634 108.945 153.634 111.71V118.325ZM169.696 119.025C168.471 120.005 167.211 120.67 166.231 120.67C165.181 120.67 164.901 120.18 164.901 118.22V106.81L166.336 106.74C167.246 106.705 168.856 106.705 169.346 106.705C169.591 106.705 169.696 106.53 169.696 106.285C169.696 105.795 169.206 105.025 168.646 105.025H168.611C168.121 105.06 166.791 105.2 165.951 105.235L164.901 105.27V103.52C164.901 102.68 164.971 100.965 164.971 100.405C164.971 99.845 164.061 99.46 163.466 99.46C163.151 99.46 162.941 99.565 162.941 99.775C162.941 100.58 163.011 102.855 163.011 103.52V105.375H159.896C159.651 105.375 159.546 105.515 159.546 105.725C159.546 106.215 160.036 107.02 160.631 107.02C160.631 107.02 161.856 106.915 162.871 106.88H163.011V118.15C163.011 121.09 163.676 122.56 166.091 122.56C168.401 122.56 170.851 119.655 170.851 118.92C170.851 118.745 170.746 118.605 170.536 118.605C170.396 118.605 170.186 118.675 169.871 118.885L169.696 119.025ZM186.949 123.925C186.949 125.15 186.879 126.48 186.879 127.04C186.879 127.6 187.789 127.985 188.419 127.985C188.699 127.985 188.944 127.88 188.944 127.67C188.944 126.865 188.839 125.395 188.839 123.96V120.11C189.784 121.72 191.779 122.525 193.564 122.525C198.324 122.525 201.649 117.555 201.649 112.27C201.649 107.72 199.514 105.06 195.734 105.06C193.004 105.06 190.029 106.81 188.874 109.4C188.874 109.4 188.944 106.67 188.944 106.11C188.944 105.55 187.999 105.165 187.369 105.165C187.054 105.165 186.844 105.27 186.844 105.48C186.879 106.285 186.949 107.685 186.949 109.12V123.925ZM188.839 118.5C188.839 116.12 188.839 113.775 188.979 113.18C189.714 109.505 192.794 106.81 195.734 106.81C198.114 106.81 199.689 108.7 199.689 112.445C199.689 116.715 197.064 120.845 193.319 120.845C192.059 120.845 190.799 120.25 189.854 118.955C189.609 118.57 189.294 118.43 189.084 118.43C188.979 118.43 188.909 118.465 188.839 118.5ZM210.443 106.53C210.338 106.32 210.128 106.18 209.883 106.18C208.938 106.18 205.718 110.59 205.718 114.755C205.718 119.585 208.378 122.56 213.033 122.56C218.423 122.56 221.328 117.87 221.328 113.425C221.328 108.175 218.563 105.06 214.608 105.06C212.648 105.06 211.388 105.83 210.443 106.53ZM213.033 120.775C209.673 120.775 207.643 118.605 207.643 114.72C207.643 111.045 210.478 106.81 214.398 106.81C217.618 106.81 219.403 109.505 219.403 113.425C219.403 117.485 216.463 120.775 213.033 120.775ZM226.632 118.29C226.632 118.78 226.562 120.81 226.562 121.37C226.562 121.93 227.472 122.315 228.102 122.315C228.382 122.315 228.627 122.21 228.627 122C228.627 121.195 228.522 119.725 228.522 118.29C228.522 114.3 228.522 112.55 229.012 110.94C229.817 108.385 231.987 106.985 233.982 106.985C234.717 106.985 236.082 107.405 236.572 108.315C236.712 108.56 236.887 108.665 237.062 108.665C237.517 108.665 238.042 107.79 238.042 107.125C238.042 106.215 235.942 105.06 234.087 105.06C231.602 105.06 229.467 106.53 228.557 108.315C228.557 107.475 228.592 106.6 228.592 106.04C228.592 105.48 227.682 105.095 227.052 105.095C226.772 105.095 226.527 105.2 226.527 105.41C226.527 106.215 226.632 108.49 226.632 109.155V118.29ZM249.266 119.025C248.041 120.005 246.781 120.67 245.801 120.67C244.751 120.67 244.471 120.18 244.471 118.22V106.81L245.906 106.74C246.816 106.705 248.426 106.705 248.916 106.705C249.161 106.705 249.266 106.53 249.266 106.285C249.266 105.795 248.776 105.025 248.216 105.025H248.181C247.691 105.06 246.361 105.2 245.521 105.235L244.471 105.27V103.52C244.471 102.68 244.541 100.965 244.541 100.405C244.541 99.845 243.631 99.46 243.036 99.46C242.721 99.46 242.511 99.565 242.511 99.775C242.511 100.58 242.581 102.855 242.581 103.52V105.375H239.466C239.221 105.375 239.116 105.515 239.116 105.725C239.116 106.215 239.606 107.02 240.201 107.02C240.201 107.02 241.426 106.915 242.441 106.88H242.581V118.15C242.581 121.09 243.246 122.56 245.661 122.56C247.971 122.56 250.421 119.655 250.421 118.92C250.421 118.745 250.316 118.605 250.106 118.605C249.966 118.605 249.756 118.675 249.441 118.885L249.266 119.025ZM255.753 100.93C256.558 100.93 257.048 100.405 257.048 99.565C257.048 98.655 256.208 97.64 255.403 97.64C254.528 97.64 254.073 98.2 254.073 99.075C254.073 99.915 254.878 100.93 255.753 100.93ZM254.633 118.325C254.633 118.815 254.563 120.845 254.563 121.405C254.563 121.93 255.508 122.315 256.138 122.315C256.453 122.315 256.663 122.245 256.663 122.035C256.663 121.23 256.558 118.745 256.558 118.325V109.12C256.558 108.28 256.628 106.565 256.628 106.005C256.628 105.48 255.683 105.095 255.053 105.095C254.738 105.095 254.528 105.165 254.528 105.375C254.528 106.18 254.633 108.455 254.633 109.12V118.325ZM266.943 106.53C266.838 106.32 266.628 106.18 266.383 106.18C265.438 106.18 262.218 110.59 262.218 114.755C262.218 119.585 264.878 122.56 269.533 122.56C274.923 122.56 277.828 117.87 277.828 113.425C277.828 108.175 275.063 105.06 271.108 105.06C269.148 105.06 267.888 105.83 266.943 106.53ZM269.533 120.775C266.173 120.775 264.143 118.605 264.143 114.72C264.143 111.045 266.978 106.81 270.898 106.81C274.118 106.81 275.903 109.505 275.903 113.425C275.903 117.485 272.963 120.775 269.533 120.775ZM295.241 118.325C295.241 119.13 295.171 120.845 295.171 121.405C295.171 121.965 296.081 122.35 296.711 122.35C296.991 122.35 297.236 122.245 297.236 122.035C297.236 121.23 297.131 118.745 297.131 118.325V111.57C297.131 108.735 296.466 105.06 292.021 105.06C289.431 105.06 286.456 106.6 285.056 109.435C285.056 108.455 285.091 106.67 285.091 106.11C285.091 105.55 284.181 105.165 283.551 105.165C283.271 105.165 283.026 105.27 283.026 105.48C283.026 106.285 283.131 108.56 283.131 109.225V118.325C283.131 118.815 283.061 120.845 283.061 121.405C283.061 121.965 283.971 122.35 284.601 122.35C284.881 122.35 285.126 122.245 285.126 122.035C285.126 121.335 285.021 120.11 285.021 118.815V118.325C285.056 116.295 285.021 113.775 285.581 111.92C286.631 108.385 289.571 106.88 292.021 106.88C294.646 106.88 295.241 108.945 295.241 111.71V118.325ZM306.717 122.28C307.662 122.28 308.222 121.685 308.222 120.705C308.222 119.725 307.242 118.605 306.367 118.605C305.352 118.605 304.862 119.2 304.862 120.215C304.862 121.125 305.737 122.28 306.717 122.28ZM318.953 122.28C319.898 122.28 320.458 121.685 320.458 120.705C320.458 119.725 319.478 118.605 318.603 118.605C317.588 118.605 317.098 119.2 317.098 120.215C317.098 121.125 317.973 122.28 318.953 122.28ZM331.19 122.28C332.135 122.28 332.695 121.685 332.695 120.705C332.695 119.725 331.715 118.605 330.84 118.605C329.825 118.605 329.335 119.2 329.335 120.215C329.335 121.125 330.21 122.28 331.19 122.28Z" fill="#212121"/>
<path d="M159 292.37C160.407 292.504 161.586 293.278 162.727 294.066C164.803 295.501 166.685 297.184 168.693 298.708C170.743 300.263 172.814 301.903 175.031 303.216C176.837 304.285 178.111 305.603 179.663 306.933C180.034 307.251 180.316 307.605 180.654 307.943C180.753 308.042 180.788 308.101 180.788 307.924C180.788 305.69 180.786 303.456 180.902 301.224C181.187 295.736 181.838 290.275 182.294 284.802C182.302 284.698 182.332 282.885 182.332 283.62" stroke="#212121" stroke-width="4" stroke-linecap="round"/>
<path d="M151 151C151 167.766 151 151.884 151 168.65C151 182.496 151.101 196.188 153.427 209.885C155.315 221.001 167.589 227.586 177.942 228.736C183.911 229.4 190.72 229.585 195.633 225.608C198.187 223.54 201 221.21 201 217.652C201 210.205 195.601 204.276 188.325 204.276C177.215 204.276 170.929 213.471 168.098 223.316C165.641 231.862 165.6 241.569 165.563 250.392C165.54 255.812 165.287 261.362 166.129 266.735C166.87 271.458 166.61 270.712 168.098 275.232C169.899 280.702 169.824 280.492 171.596 285.969C171.994 287.199 174.244 294.958 175.54 295.39" stroke="#212121" stroke-width="4" stroke-linecap="round"/>
</svg>
