<svg width="650" height="400" viewBox="0 0 650 400" fill="none" xmlns="http://www.w3.org/2000/svg">
<path d="M183.421 153.56C183.421 153.56 182.541 153.64 182.101 153.64C181.621 153.64 181.301 153.96 181.301 154.32C181.301 154.6 181.541 154.88 182.021 154.96C183.461 155.2 185.821 155.32 187.021 155.32C192.661 155.32 202.981 155.08 202.981 146.4C202.981 142.32 199.421 139.36 195.461 139.12C197.781 138.36 200.741 136.16 200.741 132.72C200.741 129.32 198.181 126.64 191.901 126.64C188.741 126.64 184.021 127.2 182.461 127.84C182.221 127.96 182.141 128.16 182.141 128.36C182.141 128.96 182.781 129.8 183.421 129.92V153.56ZM185.741 138.88V129.36C187.381 128.92 189.581 128.68 191.421 128.68C195.981 128.68 198.421 130 198.421 132.96C198.421 136.04 194.621 138 191.661 138.52C190.421 138.72 187.901 138.88 186.261 138.88H185.741ZM192.941 140.48C196.101 140.56 200.661 142.16 200.661 146.52C200.661 153.4 190.341 153.68 185.741 153.68V140.76C187.501 140.6 190.261 140.48 192.141 140.48H192.941ZM210.316 146.96C214.716 146.96 218.236 146.4 220.636 145.68C223.836 144.68 224.436 143.72 224.436 141.4C224.436 138.56 222.756 135.64 217.876 135.64C212.676 135.64 208.636 141.08 207.956 144.88C207.956 144.88 207.596 144.92 207.516 144.92C207.036 144.92 206.836 145.12 206.836 145.4C206.836 145.76 207.196 146.28 207.676 146.6V147.2C207.676 152.4 210.796 155.64 214.876 155.64C221.396 155.64 224.516 150.92 224.516 149.92C224.516 149.68 224.396 149.52 224.196 149.52C223.956 149.52 223.676 149.68 223.356 150.04C221.196 152.36 218.316 153.64 214.876 153.64C212.156 153.64 209.836 151.44 209.836 147.08V146.96H210.316ZM210.116 145C210.676 142.12 213.836 137.56 217.836 137.56C220.636 137.56 222.276 139 222.276 141.36C222.276 142.8 222.076 143.28 219.636 143.96C217.836 144.48 214.996 145 210.956 145H210.116ZM244.355 154.36C244.355 154.96 245.355 155.4 246.075 155.4C246.435 155.4 246.715 155.28 246.715 155.04C246.715 154.12 246.595 151.28 246.595 150.8V143.12C246.595 139.88 245.835 135.68 240.755 135.68C237.795 135.68 234.355 137.44 232.755 140.68V131.8C232.755 130.84 232.835 128.48 232.835 127.84C232.835 127.2 231.795 126.76 231.075 126.76C230.755 126.76 230.475 126.88 230.475 127.12C230.475 128.04 230.595 130.64 230.595 131.4V150.4C230.595 150.96 230.515 153.68 230.515 154.32C230.515 154.96 231.595 155.4 232.275 155.4C232.635 155.4 232.875 155.28 232.875 155.04C232.835 154 232.755 152.72 232.755 151.44V150.8C232.795 148.92 232.795 145.56 233.395 143.52C234.595 139.48 237.955 137.76 240.755 137.76C243.835 137.76 244.435 140.12 244.435 143.28V150.4C244.435 151.32 244.395 153.68 244.355 154.32V154.36ZM258.071 137.32C257.951 137.08 257.711 136.92 257.431 136.92C256.351 136.92 252.671 141.96 252.671 146.72C252.671 152.24 255.711 155.64 261.031 155.64C267.191 155.64 270.511 150.28 270.511 145.2C270.511 139.2 267.351 135.64 262.831 135.64C260.591 135.64 259.151 136.52 258.071 137.32ZM261.031 153.6C257.191 153.6 254.871 151.12 254.871 146.68C254.871 142.48 258.111 137.64 262.591 137.64C266.271 137.64 268.311 140.72 268.311 145.2C268.311 149.84 264.951 153.6 261.031 153.6ZM276.972 150.8C276.972 151.36 276.892 153.68 276.892 154.32C276.892 154.96 277.972 155.4 278.652 155.4C279.012 155.4 279.292 155.28 279.292 155.04C279.292 154.12 279.172 151.28 279.172 150.8V131.4C279.172 130.44 279.252 128.48 279.252 127.84C279.252 127.2 278.172 126.76 277.492 126.76C277.132 126.76 276.852 126.88 276.852 127.12C276.852 128.04 276.972 130.64 276.972 131.4V150.8ZM300.519 149.88C300.519 152.52 301.719 155.4 302.599 155.4C303.279 155.4 303.999 154.4 303.999 153.8C303.999 153.68 303.999 153.56 303.919 153.48C303.039 152.4 302.559 149.96 302.559 147.6V131.32C302.559 129.92 302.639 128.4 302.639 127.76C302.639 127.12 301.599 126.68 300.919 126.68C300.559 126.68 300.319 126.8 300.319 127.04C300.319 127.96 300.399 129.64 300.399 131.28V138.28C299.359 136.4 297.559 135.64 295.519 135.64C290.359 135.64 285.639 141.28 285.639 147.56C285.639 152.76 288.279 155.64 292.119 155.64C295.279 155.64 298.119 153.84 300.519 149.72V149.88ZM300.399 143.96C300.399 149.08 295.799 153.64 292.119 153.64C289.799 153.64 287.879 151.68 287.879 147.44C287.879 142.76 291.199 137.56 295.559 137.56C296.999 137.56 298.439 138.16 299.439 139.76C299.519 139.92 299.639 139.96 299.799 139.96C300.039 139.96 300.279 139.84 300.399 139.64V143.96ZM313.047 155.2C312.807 156.16 311.847 157.28 310.847 157.96C310.607 158.12 310.527 158.32 310.527 158.48C310.527 158.76 310.727 159 311.047 159C312.247 159 315.327 156.48 315.327 153.88C315.327 153.76 315.287 153.64 315.287 153.52C315.127 152.2 314.327 151.12 313.247 151.12C312.087 151.12 311.527 151.76 311.527 152.96C311.527 153.8 312.087 154.56 312.487 154.88C312.567 154.96 312.887 155.16 313.047 155.2ZM346.736 151.6C345.336 152.72 343.896 153.48 342.776 153.48C341.576 153.48 341.256 152.92 341.256 150.68V137.64L342.896 137.56C343.936 137.52 345.776 137.52 346.336 137.52C346.616 137.52 346.736 137.32 346.736 137.04C346.736 136.48 346.176 135.6 345.536 135.6H345.496C344.936 135.64 343.416 135.8 342.456 135.84L341.256 135.88V133.88C341.256 132.92 341.336 130.96 341.336 130.32C341.336 129.68 340.296 129.24 339.616 129.24C339.256 129.24 339.016 129.36 339.016 129.6C339.016 130.52 339.096 133.12 339.096 133.88V136H335.536C335.256 136 335.136 136.16 335.136 136.4C335.136 136.96 335.696 137.88 336.376 137.88C336.376 137.88 337.776 137.76 338.936 137.72H339.096V150.6C339.096 153.96 339.856 155.64 342.616 155.64C345.256 155.64 348.056 152.32 348.056 151.48C348.056 151.28 347.936 151.12 347.696 151.12C347.536 151.12 347.296 151.2 346.936 151.44L346.736 151.6ZM366.23 154.36C366.23 154.96 367.23 155.4 367.95 155.4C368.31 155.4 368.59 155.28 368.59 155.04C368.59 154.12 368.47 151.28 368.47 150.8V143.12C368.47 139.88 367.71 135.68 362.63 135.68C359.67 135.68 356.23 137.44 354.63 140.68V131.8C354.63 130.84 354.71 128.48 354.71 127.84C354.71 127.2 353.67 126.76 352.95 126.76C352.63 126.76 352.35 126.88 352.35 127.12C352.35 128.04 352.47 130.64 352.47 131.4V150.4C352.47 150.96 352.39 153.68 352.39 154.32C352.39 154.96 353.47 155.4 354.15 155.4C354.51 155.4 354.75 155.28 354.75 155.04C354.71 154 354.63 152.72 354.63 151.44V150.8C354.67 148.92 354.67 145.56 355.27 143.52C356.47 139.48 359.83 137.76 362.63 137.76C365.71 137.76 366.31 140.12 366.31 143.28V150.4C366.31 151.32 366.27 153.68 366.23 154.32V154.36ZM377.426 146.96C381.826 146.96 385.346 146.4 387.746 145.68C390.946 144.68 391.546 143.72 391.546 141.4C391.546 138.56 389.866 135.64 384.986 135.64C379.786 135.64 375.746 141.08 375.066 144.88C375.066 144.88 374.706 144.92 374.626 144.92C374.146 144.92 373.946 145.12 373.946 145.4C373.946 145.76 374.306 146.28 374.786 146.6V147.2C374.786 152.4 377.906 155.64 381.986 155.64C388.506 155.64 391.626 150.92 391.626 149.92C391.626 149.68 391.506 149.52 391.306 149.52C391.066 149.52 390.786 149.68 390.466 150.04C388.306 152.36 385.426 153.64 381.986 153.64C379.266 153.64 376.946 151.44 376.946 147.08V146.96H377.426ZM377.226 145C377.786 142.12 380.946 137.56 384.946 137.56C387.746 137.56 389.386 139 389.386 141.36C389.386 142.8 389.186 143.28 386.746 143.96C384.946 144.48 382.106 145 378.066 145H377.226ZM434.649 150.8C434.649 151.72 434.569 153.68 434.569 154.32C434.569 154.96 435.609 155.4 436.329 155.4C436.649 155.4 436.929 155.28 436.929 155.04C436.929 154.12 436.809 151.28 436.809 150.8V143.12C436.809 139.4 435.129 135.64 431.009 135.64C428.649 135.64 426.169 137 424.849 139.52C424.449 137.52 423.049 135.64 419.969 135.64C417.529 135.64 414.929 137.32 413.849 139.96C413.849 138.76 413.889 137.48 413.889 136.84C413.889 136.2 412.849 135.76 412.129 135.76C411.809 135.76 411.529 135.88 411.529 136.12C411.529 137.04 411.649 140 411.649 140.76V150.8C411.649 151.36 411.569 153.68 411.569 154.32C411.569 154.96 412.609 155.4 413.329 155.4C413.649 155.4 413.929 155.28 413.929 155.04C413.929 154.12 413.809 152.44 413.809 150.8C413.849 148.08 413.809 145.04 414.449 142.84C415.729 138.52 418.409 137.64 419.969 137.64C422.409 137.64 423.129 140.12 423.129 143.28V150.8C423.129 151.72 423.049 153.68 423.049 154.32C423.049 154.96 424.089 155.4 424.769 155.4C425.129 155.4 425.369 155.28 425.369 155.04C425.369 154.12 425.249 152.32 425.249 150.8V144.28C425.249 140.72 428.409 137.64 430.889 137.64C433.289 137.64 434.649 140.04 434.649 143.28V150.8ZM448.305 137.32C448.185 137.08 447.945 136.92 447.665 136.92C446.585 136.92 442.905 141.96 442.905 146.72C442.905 152.24 445.945 155.64 451.265 155.64C457.425 155.64 460.745 150.28 460.745 145.2C460.745 139.2 457.585 135.64 453.065 135.64C450.825 135.64 449.385 136.52 448.305 137.32ZM451.265 153.6C447.425 153.6 445.105 151.12 445.105 146.68C445.105 142.48 448.345 137.64 452.825 137.64C456.505 137.64 458.545 140.72 458.545 145.2C458.545 149.84 455.185 153.6 451.265 153.6ZM489.766 150.8C489.766 151.72 489.686 153.68 489.686 154.32C489.686 154.96 490.726 155.4 491.446 155.4C491.766 155.4 492.046 155.28 492.046 155.04C492.046 154.12 491.926 151.28 491.926 150.8V143.12C491.926 139.4 490.246 135.64 486.126 135.64C483.766 135.64 481.286 137 479.966 139.52C479.566 137.52 478.166 135.64 475.086 135.64C472.646 135.64 470.046 137.32 468.966 139.96C468.966 138.76 469.006 137.48 469.006 136.84C469.006 136.2 467.966 135.76 467.246 135.76C466.926 135.76 466.646 135.88 466.646 136.12C466.646 137.04 466.766 140 466.766 140.76V150.8C466.766 151.36 466.686 153.68 466.686 154.32C466.686 154.96 467.726 155.4 468.446 155.4C468.766 155.4 469.046 155.28 469.046 155.04C469.046 154.12 468.926 152.44 468.926 150.8C468.966 148.08 468.926 145.04 469.566 142.84C470.846 138.52 473.526 137.64 475.086 137.64C477.526 137.64 478.246 140.12 478.246 143.28V150.8C478.246 151.72 478.166 153.68 478.166 154.32C478.166 154.96 479.206 155.4 479.886 155.4C480.246 155.4 480.486 155.28 480.486 155.04C480.486 154.12 480.366 152.32 480.366 150.8V144.28C480.366 140.72 483.526 137.64 486.006 137.64C488.406 137.64 489.766 140.04 489.766 143.28V150.8ZM500.902 146.96C505.302 146.96 508.822 146.4 511.222 145.68C514.422 144.68 515.022 143.72 515.022 141.4C515.022 138.56 513.342 135.64 508.462 135.64C503.262 135.64 499.222 141.08 498.542 144.88C498.542 144.88 498.182 144.92 498.102 144.92C497.622 144.92 497.422 145.12 497.422 145.4C497.422 145.76 497.782 146.28 498.262 146.6V147.2C498.262 152.4 501.382 155.64 505.462 155.64C511.982 155.64 515.102 150.92 515.102 149.92C515.102 149.68 514.982 149.52 514.782 149.52C514.542 149.52 514.262 149.68 513.942 150.04C511.782 152.36 508.902 153.64 505.462 153.64C502.742 153.64 500.422 151.44 500.422 147.08V146.96H500.902ZM500.702 145C501.262 142.12 504.422 137.56 508.422 137.56C511.222 137.56 512.862 139 512.862 141.36C512.862 142.8 512.662 143.28 510.222 143.96C508.422 144.48 505.582 145 501.542 145H500.702ZM535.021 150.8C535.021 151.72 534.941 153.68 534.941 154.32C534.941 154.96 535.981 155.4 536.701 155.4C537.021 155.4 537.301 155.28 537.301 155.04C537.301 154.12 537.181 151.28 537.181 150.8V143.08C537.181 139.84 536.421 135.64 531.341 135.64C528.381 135.64 524.981 137.4 523.381 140.64C523.381 139.52 523.421 137.48 523.421 136.84C523.421 136.2 522.381 135.76 521.661 135.76C521.341 135.76 521.061 135.88 521.061 136.12C521.061 137.04 521.181 139.64 521.181 140.4V150.8C521.181 151.36 521.101 153.68 521.101 154.32C521.101 154.96 522.141 155.4 522.861 155.4C523.181 155.4 523.461 155.28 523.461 155.04C523.461 154.24 523.341 152.84 523.341 151.36V150.8C523.381 148.48 523.341 145.6 523.981 143.48C525.181 139.44 528.541 137.72 531.341 137.72C534.341 137.72 535.021 140.08 535.021 143.24V150.8ZM553.377 151.6C551.977 152.72 550.537 153.48 549.417 153.48C548.217 153.48 547.897 152.92 547.897 150.68V137.64L549.537 137.56C550.577 137.52 552.417 137.52 552.977 137.52C553.257 137.52 553.377 137.32 553.377 137.04C553.377 136.48 552.817 135.6 552.177 135.6H552.137C551.577 135.64 550.057 135.8 549.097 135.84L547.897 135.88V133.88C547.897 132.92 547.977 130.96 547.977 130.32C547.977 129.68 546.937 129.24 546.257 129.24C545.897 129.24 545.657 129.36 545.657 129.6C545.657 130.52 545.737 133.12 545.737 133.88V136H542.177C541.897 136 541.777 136.16 541.777 136.4C541.777 136.96 542.337 137.88 543.017 137.88C543.017 137.88 544.417 137.76 545.577 137.72H545.737V150.6C545.737 153.96 546.497 155.64 549.257 155.64C551.897 155.64 554.697 152.32 554.697 151.48C554.697 151.28 554.577 151.12 554.337 151.12C554.177 151.12 553.937 151.2 553.577 151.44L553.377 151.6ZM577.055 137.32C576.935 137.08 576.695 136.92 576.415 136.92C575.335 136.92 571.655 141.96 571.655 146.72C571.655 152.24 574.695 155.64 580.015 155.64C586.175 155.64 589.495 150.28 589.495 145.2C589.495 139.2 586.335 135.64 581.815 135.64C579.575 135.64 578.135 136.52 577.055 137.32ZM580.015 153.6C576.175 153.6 573.855 151.12 573.855 146.68C573.855 142.48 577.095 137.64 581.575 137.64C585.255 137.64 587.295 140.72 587.295 145.2C587.295 149.84 583.935 153.6 580.015 153.6ZM597.156 150.36C597.156 151.76 597.076 153.68 597.076 154.32C597.076 154.96 598.116 155.4 598.836 155.4C599.156 155.4 599.436 155.28 599.436 155.04C599.436 154.12 599.316 152.44 599.316 150.8V137.68L600.876 137.6C601.916 137.56 604.156 137.56 604.716 137.56C604.996 137.56 605.116 137.36 605.116 137.08C605.116 136.52 604.556 135.64 603.916 135.64H603.876C603.316 135.68 601.396 135.84 600.436 135.88L599.316 135.92V131.4C599.316 129.68 600.476 128.84 601.556 128.84C602.436 128.84 603.676 129.16 604.316 130.32C604.476 130.64 604.676 130.76 604.876 130.76C605.436 130.76 605.956 129.84 605.956 129.12C605.956 128.92 605.876 128.68 605.756 128.56C604.596 127.16 602.996 126.76 601.596 126.76C599.276 126.76 597.156 128.4 597.156 131.44V136L595.916 136.04H592.956C592.676 136.04 592.556 136.2 592.556 136.44C592.556 137 593.116 137.92 593.796 137.92C593.796 137.92 595.196 137.8 596.356 137.76L597.156 137.72V150.36ZM199.021 196.64C199.021 196.04 197.981 195.64 197.261 195.64C196.901 195.64 196.621 195.76 196.621 196C196.621 196.92 196.581 201.32 196.501 202.96C196.181 209.12 192.421 213.64 188.781 213.64C186.221 213.64 185.021 211.16 185.021 208V200.28C185.021 199.36 185.101 197.4 185.101 196.76C185.101 196.12 184.061 195.68 183.341 195.68C183.021 195.68 182.741 195.8 182.741 196.04C182.741 196.96 182.861 199.8 182.861 200.28V208.16C182.861 212 184.181 215.64 188.781 215.64C192.101 215.64 194.941 213.52 196.701 209.72C196.741 211.24 197.501 215.44 198.781 215.44C199.461 215.44 200.141 214.48 200.141 213.92C200.141 213.8 200.101 213.72 200.061 213.64C199.061 212.04 198.541 209.16 198.541 205.52C198.541 200.96 198.861 197.68 199.021 196.72V196.64ZM215.134 211.6C213.734 212.72 212.294 213.48 211.174 213.48C209.974 213.48 209.654 212.92 209.654 210.68V197.64L211.294 197.56C212.334 197.52 214.174 197.52 214.734 197.52C215.014 197.52 215.134 197.32 215.134 197.04C215.134 196.48 214.574 195.6 213.934 195.6H213.894C213.334 195.64 211.814 195.8 210.854 195.84L209.654 195.88V193.88C209.654 192.92 209.734 190.96 209.734 190.32C209.734 189.68 208.694 189.24 208.014 189.24C207.654 189.24 207.414 189.36 207.414 189.6C207.414 190.52 207.494 193.12 207.494 193.88V196H203.934C203.654 196 203.534 196.16 203.534 196.4C203.534 196.96 204.094 197.88 204.774 197.88C204.774 197.88 206.174 197.76 207.334 197.72H207.494V210.6C207.494 213.96 208.254 215.64 211.014 215.64C213.654 215.64 216.454 212.32 216.454 211.48C216.454 211.28 216.334 211.12 216.094 211.12C215.934 211.12 215.694 211.2 215.334 211.44L215.134 211.6ZM243.828 210.8C243.828 211.72 243.748 213.68 243.748 214.32C243.748 214.96 244.788 215.4 245.508 215.4C245.828 215.4 246.108 215.28 246.108 215.04C246.108 214.12 245.988 211.28 245.988 210.8V203.12C245.988 199.4 244.308 195.64 240.188 195.64C237.828 195.64 235.348 197 234.028 199.52C233.628 197.52 232.228 195.64 229.148 195.64C226.708 195.64 224.108 197.32 223.028 199.96C223.028 198.76 223.068 197.48 223.068 196.84C223.068 196.2 222.028 195.76 221.308 195.76C220.988 195.76 220.708 195.88 220.708 196.12C220.708 197.04 220.828 200 220.828 200.76V210.8C220.828 211.36 220.748 213.68 220.748 214.32C220.748 214.96 221.788 215.4 222.508 215.4C222.828 215.4 223.108 215.28 223.108 215.04C223.108 214.12 222.988 212.44 222.988 210.8C223.028 208.08 222.988 205.04 223.628 202.84C224.908 198.52 227.588 197.64 229.148 197.64C231.588 197.64 232.308 200.12 232.308 203.28V210.8C232.308 211.72 232.228 213.68 232.228 214.32C232.228 214.96 233.268 215.4 233.948 215.4C234.308 215.4 234.548 215.28 234.548 215.04C234.548 214.12 234.428 212.32 234.428 210.8V204.28C234.428 200.72 237.588 197.64 240.068 197.64C242.468 197.64 243.828 200.04 243.828 203.28V210.8ZM257.485 197.32C257.365 197.08 257.125 196.92 256.845 196.92C255.765 196.92 252.085 201.96 252.085 206.72C252.085 212.24 255.125 215.64 260.445 215.64C266.605 215.64 269.925 210.28 269.925 205.2C269.925 199.2 266.765 195.64 262.245 195.64C260.005 195.64 258.565 196.52 257.485 197.32ZM260.445 213.6C256.605 213.6 254.285 211.12 254.285 206.68C254.285 202.48 257.525 197.64 262.005 197.64C265.685 197.64 267.725 200.72 267.725 205.2C267.725 209.84 264.365 213.6 260.445 213.6ZM284.026 206.12C287.026 206.84 288.066 208.04 288.066 209.96C288.066 211.84 285.906 213.64 282.626 213.64C280.106 213.64 277.546 213.24 276.346 210.16C276.266 209.96 276.146 209.88 275.986 209.88C275.466 209.88 274.666 210.8 274.666 211.52C274.666 212.16 276.626 215.64 282.626 215.64C287.306 215.64 290.226 213.04 290.226 209.88C290.226 206.6 288.106 205.04 284.706 204.24L280.866 203.32C278.586 202.8 277.746 201.96 277.746 200.84C277.746 198.96 279.746 197.52 282.866 197.52C283.626 197.52 286.346 197.6 287.666 199.56C287.866 199.84 287.986 200.04 288.186 200.04C288.546 200.04 289.346 199.48 289.346 198.52C289.346 198.36 289.306 198.2 289.226 198.12C288.146 196.76 285.906 195.64 282.866 195.64C278.946 195.64 275.626 197.72 275.626 200.76C275.626 203.2 277.106 204.48 280.026 205.16L284.026 206.12ZM305.056 211.6C303.656 212.72 302.216 213.48 301.096 213.48C299.896 213.48 299.576 212.92 299.576 210.68V197.64L301.216 197.56C302.256 197.52 304.096 197.52 304.656 197.52C304.936 197.52 305.056 197.32 305.056 197.04C305.056 196.48 304.496 195.6 303.856 195.6H303.816C303.256 195.64 301.736 195.8 300.776 195.84L299.576 195.88V193.88C299.576 192.92 299.656 190.96 299.656 190.32C299.656 189.68 298.616 189.24 297.936 189.24C297.576 189.24 297.336 189.36 297.336 189.6C297.336 190.52 297.416 193.12 297.416 193.88V196H293.856C293.576 196 293.456 196.16 293.456 196.4C293.456 196.96 294.016 197.88 294.696 197.88C294.696 197.88 296.096 197.76 297.256 197.72H297.416V210.6C297.416 213.96 298.176 215.64 300.936 215.64C303.576 215.64 306.376 212.32 306.376 211.48C306.376 211.28 306.256 211.12 306.016 211.12C305.856 211.12 305.616 211.2 305.256 211.44L305.056 211.6ZM332.815 206.12C335.815 206.84 336.855 208.04 336.855 209.96C336.855 211.84 334.695 213.64 331.415 213.64C328.895 213.64 326.335 213.24 325.135 210.16C325.055 209.96 324.935 209.88 324.775 209.88C324.255 209.88 323.455 210.8 323.455 211.52C323.455 212.16 325.415 215.64 331.415 215.64C336.095 215.64 339.015 213.04 339.015 209.88C339.015 206.6 336.895 205.04 333.495 204.24L329.655 203.32C327.375 202.8 326.535 201.96 326.535 200.84C326.535 198.96 328.535 197.52 331.655 197.52C332.415 197.52 335.135 197.6 336.455 199.56C336.655 199.84 336.775 200.04 336.975 200.04C337.335 200.04 338.135 199.48 338.135 198.52C338.135 198.36 338.095 198.2 338.015 198.12C336.935 196.76 334.695 195.64 331.655 195.64C327.735 195.64 324.415 197.72 324.415 200.76C324.415 203.2 325.895 204.48 328.815 205.16L332.815 206.12ZM346.845 190.92C347.765 190.92 348.325 190.32 348.325 189.36C348.325 188.32 347.365 187.16 346.445 187.16C345.445 187.16 344.925 187.8 344.925 188.8C344.925 189.76 345.845 190.92 346.845 190.92ZM345.565 210.8C345.565 211.36 345.485 213.68 345.485 214.32C345.485 214.92 346.565 215.36 347.285 215.36C347.645 215.36 347.885 215.28 347.885 215.04C347.885 214.12 347.765 211.28 347.765 210.8V200.28C347.765 199.32 347.845 197.36 347.845 196.72C347.845 196.12 346.765 195.68 346.045 195.68C345.685 195.68 345.445 195.76 345.445 196C345.445 196.92 345.565 199.52 345.565 200.28V210.8ZM369.193 212.96C369.193 217.6 365.753 219.88 361.593 219.88C358.833 219.88 357.313 219.04 356.313 216.8C356.193 216.52 355.993 216.4 355.793 216.4C355.193 216.4 354.393 217.28 354.393 217.96C354.393 218.12 355.753 221.92 361.593 221.92C366.873 221.92 371.353 218.8 371.353 213V200.68C371.353 199.28 371.473 197.72 371.513 196.72V196.68C371.513 196.08 370.473 195.64 369.793 195.64C369.433 195.64 369.153 195.76 369.153 196C369.153 196.6 369.193 197.52 369.193 198.72C368.153 196.56 366.073 195.64 363.793 195.64C358.633 195.64 354.233 201.16 354.233 206.56C354.233 211.84 356.913 214.64 361.073 214.64C363.953 214.64 367.033 213.36 369.193 209.64V212.96ZM369.193 201.4C369.193 203.44 369.193 205.36 368.993 206.04C368.033 210.32 363.993 212.64 361.073 212.64C358.273 212.64 356.473 210.84 356.473 206.52C356.473 202.32 359.873 197.6 363.833 197.6C365.313 197.6 366.833 198.24 367.993 199.8C368.113 199.96 368.233 200 368.353 200C368.673 200 369.033 199.68 369.193 199.4V201.4ZM392.716 210.8C392.716 211.72 392.636 213.68 392.636 214.32C392.636 214.96 393.676 215.4 394.396 215.4C394.716 215.4 394.996 215.28 394.996 215.04C394.996 214.12 394.876 211.28 394.876 210.8V203.08C394.876 199.84 394.116 195.64 389.036 195.64C386.076 195.64 382.676 197.4 381.076 200.64C381.076 199.52 381.116 197.48 381.116 196.84C381.116 196.2 380.076 195.76 379.356 195.76C379.036 195.76 378.756 195.88 378.756 196.12C378.756 197.04 378.876 199.64 378.876 200.4V210.8C378.876 211.36 378.796 213.68 378.796 214.32C378.796 214.96 379.836 215.4 380.556 215.4C380.876 215.4 381.156 215.28 381.156 215.04C381.156 214.24 381.036 212.84 381.036 211.36V210.8C381.076 208.48 381.036 205.6 381.676 203.48C382.876 199.44 386.236 197.72 389.036 197.72C392.036 197.72 392.716 200.08 392.716 203.24V210.8ZM404.072 190.92C404.992 190.92 405.552 190.32 405.552 189.36C405.552 188.32 404.592 187.16 403.672 187.16C402.672 187.16 402.152 187.8 402.152 188.8C402.152 189.76 403.072 190.92 404.072 190.92ZM402.792 210.8C402.792 211.36 402.712 213.68 402.712 214.32C402.712 214.92 403.792 215.36 404.512 215.36C404.872 215.36 405.112 215.28 405.112 215.04C405.112 214.12 404.992 211.28 404.992 210.8V200.28C404.992 199.32 405.072 197.36 405.072 196.72C405.072 196.12 403.992 195.68 403.272 195.68C402.912 195.68 402.672 195.76 402.672 196C402.672 196.92 402.792 199.52 402.792 200.28V210.8ZM425.82 190.92C426.74 190.92 427.3 190.32 427.3 189.36C427.3 188.32 426.34 187.16 425.42 187.16C424.42 187.16 423.9 187.8 423.9 188.8C423.9 189.76 424.82 190.92 425.82 190.92ZM414.5 210.36C414.5 211.76 414.42 213.68 414.42 214.32C414.42 214.96 415.46 215.4 416.18 215.4C416.5 215.4 416.78 215.28 416.78 215.04C416.78 214.12 416.66 212.44 416.66 210.8V197.68L418.22 197.6C419.26 197.56 421.5 197.56 422.06 197.56C422.34 197.56 422.46 197.36 422.46 197.08C422.46 196.52 421.9 195.64 421.26 195.64H421.22C420.66 195.68 418.74 195.84 417.78 195.88L416.66 195.92V191.4C416.66 189.68 417.82 188.84 418.9 188.84C419.78 188.84 421.02 189.16 421.66 190.32C421.82 190.64 422.02 190.76 422.22 190.76C422.78 190.76 423.3 189.84 423.3 189.12C423.3 188.92 423.22 188.68 423.1 188.56C421.94 187.16 420.34 186.76 418.94 186.76C416.62 186.76 414.5 188.4 414.5 191.44V196L413.26 196.04H410.3C410.02 196.04 409.9 196.2 409.9 196.44C409.9 197 410.46 197.92 411.14 197.92C411.14 197.92 412.54 197.8 413.7 197.76L414.5 197.72V210.36ZM424.58 210.8C424.58 211.36 424.5 213.68 424.5 214.32C424.5 214.92 425.58 215.36 426.26 215.36C426.62 215.36 426.86 215.28 426.86 215.04C426.86 214.12 426.74 211.28 426.74 210.8V200.28C426.74 199.32 426.82 197.36 426.82 196.72C426.82 196.12 425.74 195.68 425.06 195.68C424.7 195.68 424.46 195.76 424.46 196C424.46 196.92 424.58 199.52 424.58 200.28V210.8ZM450.217 209.32C450.217 209.08 450.097 208.92 449.897 208.92C449.697 208.92 449.417 209.08 449.057 209.44C447.177 211.36 444.697 213.64 440.897 213.64C438.297 213.64 435.457 211.6 435.457 207.04C435.457 202 439.697 197.64 443.497 197.64C445.377 197.64 446.497 198.6 447.417 200.32C447.497 200.48 447.617 200.52 447.777 200.52C448.337 200.52 449.137 199.76 449.137 199C449.137 198.72 447.857 195.64 443.417 195.64C438.497 195.64 433.217 200.88 433.217 207.24C433.217 212.68 436.737 215.64 440.897 215.64C447.137 215.64 450.217 210.16 450.217 209.32ZM471.588 196.64C471.588 196.04 470.508 195.64 469.788 195.64C469.388 195.64 469.108 195.76 469.108 196C469.108 196.36 469.068 197.4 469.028 198.6C468.188 196.6 466.188 195.64 464.228 195.64C459.508 195.64 454.428 201.24 454.428 208C454.428 213 456.948 215.64 460.788 215.64C463.828 215.64 467.028 213.88 468.948 209.96C469.068 211.76 470.028 215.44 471.148 215.44C471.868 215.44 472.548 214.52 472.548 213.92C472.548 213.8 472.508 213.72 472.468 213.64C471.068 211.48 471.068 208.36 471.068 207.28C471.068 205.32 471.228 199.04 471.588 196.72V196.64ZM469.028 199.56C468.988 200.92 468.988 202.56 468.948 203.36C468.668 209.56 464.788 213.64 460.788 213.64C458.428 213.64 456.708 211.92 456.708 207.8C456.708 202.08 460.708 197.56 464.268 197.56C465.508 197.56 466.948 198.24 467.948 199.8C468.028 199.92 468.148 199.96 468.308 199.96C468.548 199.96 468.908 199.8 469.028 199.56ZM492.716 210.8C492.716 211.72 492.636 213.68 492.636 214.32C492.636 214.96 493.676 215.4 494.396 215.4C494.716 215.4 494.996 215.28 494.996 215.04C494.996 214.12 494.876 211.28 494.876 210.8V203.08C494.876 199.84 494.116 195.64 489.036 195.64C486.076 195.64 482.676 197.4 481.076 200.64C481.076 199.52 481.116 197.48 481.116 196.84C481.116 196.2 480.076 195.76 479.356 195.76C479.036 195.76 478.756 195.88 478.756 196.12C478.756 197.04 478.876 199.64 478.876 200.4V210.8C478.876 211.36 478.796 213.68 478.796 214.32C478.796 214.96 479.836 215.4 480.556 215.4C480.876 215.4 481.156 215.28 481.156 215.04C481.156 214.24 481.036 212.84 481.036 211.36V210.8C481.076 208.48 481.036 205.6 481.676 203.48C482.876 199.44 486.236 197.72 489.036 197.72C492.036 197.72 492.716 200.08 492.716 203.24V210.8ZM517.952 209.32C517.952 209.08 517.832 208.92 517.632 208.92C517.432 208.92 517.152 209.08 516.792 209.44C514.912 211.36 512.432 213.64 508.632 213.64C506.032 213.64 503.192 211.6 503.192 207.04C503.192 202 507.432 197.64 511.232 197.64C513.112 197.64 514.232 198.6 515.152 200.32C515.232 200.48 515.352 200.52 515.512 200.52C516.072 200.52 516.872 199.76 516.872 199C516.872 198.72 515.592 195.64 511.152 195.64C506.232 195.64 500.952 200.88 500.952 207.24C500.952 212.68 504.472 215.64 508.632 215.64C514.872 215.64 517.952 210.16 517.952 209.32ZM525.043 206.96C529.443 206.96 532.963 206.4 535.363 205.68C538.563 204.68 539.163 203.72 539.163 201.4C539.163 198.56 537.483 195.64 532.603 195.64C527.403 195.64 523.363 201.08 522.683 204.88C522.683 204.88 522.323 204.92 522.243 204.92C521.763 204.92 521.563 205.12 521.563 205.4C521.563 205.76 521.923 206.28 522.403 206.6V207.2C522.403 212.4 525.523 215.64 529.603 215.64C536.123 215.64 539.243 210.92 539.243 209.92C539.243 209.68 539.123 209.52 538.923 209.52C538.683 209.52 538.403 209.68 538.083 210.04C535.923 212.36 533.043 213.64 529.603 213.64C526.883 213.64 524.563 211.44 524.563 207.08V206.96H525.043ZM524.843 205C525.403 202.12 528.563 197.56 532.563 197.56C535.363 197.56 537.003 199 537.003 201.36C537.003 202.8 536.803 203.28 534.363 203.96C532.563 204.48 529.723 205 525.683 205H524.843ZM573.066 214.36C573.066 214.96 574.066 215.4 574.786 215.4C575.146 215.4 575.426 215.28 575.426 215.04C575.426 214.12 575.306 211.28 575.306 210.8V203.12C575.306 199.88 574.546 195.68 569.466 195.68C566.506 195.68 563.066 197.44 561.466 200.68V191.8C561.466 190.84 561.546 188.48 561.546 187.84C561.546 187.2 560.506 186.76 559.786 186.76C559.466 186.76 559.186 186.88 559.186 187.12C559.186 188.04 559.306 190.64 559.306 191.4V210.4C559.306 210.96 559.226 213.68 559.226 214.32C559.226 214.96 560.306 215.4 560.986 215.4C561.346 215.4 561.586 215.28 561.586 215.04C561.546 214 561.466 212.72 561.466 211.44V210.8C561.506 208.92 561.506 205.56 562.106 203.52C563.306 199.48 566.666 197.76 569.466 197.76C572.546 197.76 573.146 200.12 573.146 203.28V210.4C573.146 211.32 573.106 213.68 573.066 214.32V214.36ZM598.542 196.64C598.542 196.04 597.462 195.64 596.742 195.64C596.342 195.64 596.062 195.76 596.062 196C596.062 196.36 596.022 197.4 595.982 198.6C595.142 196.6 593.142 195.64 591.182 195.64C586.462 195.64 581.382 201.24 581.382 208C581.382 213 583.902 215.64 587.742 215.64C590.782 215.64 593.982 213.88 595.902 209.96C596.022 211.76 596.982 215.44 598.102 215.44C598.822 215.44 599.502 214.52 599.502 213.92C599.502 213.8 599.462 213.72 599.422 213.64C598.022 211.48 598.022 208.36 598.022 207.28C598.022 205.32 598.182 199.04 598.542 196.72V196.64ZM595.982 199.56C595.942 200.92 595.942 202.56 595.902 203.36C595.622 209.56 591.742 213.64 587.742 213.64C585.382 213.64 583.662 211.92 583.662 207.8C583.662 202.08 587.662 197.56 591.222 197.56C592.462 197.56 593.902 198.24 594.902 199.8C594.982 199.92 595.102 199.96 595.262 199.96C595.502 199.96 595.862 199.8 595.982 199.56ZM613.869 206.12C616.869 206.84 617.909 208.04 617.909 209.96C617.909 211.84 615.749 213.64 612.469 213.64C609.949 213.64 607.389 213.24 606.189 210.16C606.109 209.96 605.989 209.88 605.829 209.88C605.309 209.88 604.509 210.8 604.509 211.52C604.509 212.16 606.469 215.64 612.469 215.64C617.149 215.64 620.069 213.04 620.069 209.88C620.069 206.6 617.949 205.04 614.549 204.24L610.709 203.32C608.429 202.8 607.589 201.96 607.589 200.84C607.589 198.96 609.589 197.52 612.709 197.52C613.469 197.52 616.189 197.6 617.509 199.56C617.709 199.84 617.829 200.04 618.029 200.04C618.389 200.04 619.189 199.48 619.189 198.52C619.189 198.36 619.149 198.2 619.069 198.12C617.989 196.76 615.749 195.64 612.709 195.64C608.789 195.64 605.469 197.72 605.469 200.76C605.469 203.2 606.949 204.48 609.869 205.16L613.869 206.12ZM198.581 256.64C198.581 256.04 197.501 255.64 196.781 255.64C196.381 255.64 196.101 255.76 196.101 256C196.101 256.36 196.061 257.4 196.021 258.6C195.181 256.6 193.181 255.64 191.221 255.64C186.501 255.64 181.421 261.24 181.421 268C181.421 273 183.941 275.64 187.781 275.64C190.821 275.64 194.021 273.88 195.941 269.96C196.061 271.76 197.021 275.44 198.141 275.44C198.861 275.44 199.541 274.52 199.541 273.92C199.541 273.8 199.501 273.72 199.461 273.64C198.061 271.48 198.061 268.36 198.061 267.28C198.061 265.32 198.221 259.04 198.581 256.72V256.64ZM196.021 259.56C195.981 260.92 195.981 262.56 195.941 263.36C195.661 269.56 191.781 273.64 187.781 273.64C185.421 273.64 183.701 271.92 183.701 267.8C183.701 262.08 187.701 257.56 191.261 257.56C192.501 257.56 193.941 258.24 194.941 259.8C195.021 259.92 195.141 259.96 195.301 259.96C195.541 259.96 195.901 259.8 196.021 259.56ZM205.868 270.76C205.868 271.32 205.788 273.64 205.788 274.28C205.788 274.92 206.828 275.36 207.548 275.36C207.868 275.36 208.148 275.24 208.148 275C208.148 274.08 208.028 272.4 208.028 270.76C208.028 266.2 208.028 264.2 208.588 262.36C209.508 259.44 211.988 257.84 214.268 257.84C215.108 257.84 216.668 258.32 217.228 259.36C217.388 259.64 217.588 259.76 217.788 259.76C218.308 259.76 218.908 258.76 218.908 258C218.908 256.96 216.508 255.64 214.388 255.64C211.548 255.64 209.108 257.32 208.068 259.36C208.068 258.4 208.108 257.4 208.108 256.76C208.108 256.12 207.068 255.68 206.348 255.68C206.028 255.68 205.748 255.8 205.748 256.04C205.748 256.96 205.868 259.56 205.868 260.32V270.76ZM223.056 270.76C223.056 271.32 222.976 273.64 222.976 274.28C222.976 274.92 224.016 275.36 224.736 275.36C225.056 275.36 225.336 275.24 225.336 275C225.336 274.08 225.216 272.4 225.216 270.76C225.216 266.2 225.216 264.2 225.776 262.36C226.696 259.44 229.176 257.84 231.456 257.84C232.296 257.84 233.856 258.32 234.416 259.36C234.576 259.64 234.776 259.76 234.976 259.76C235.496 259.76 236.096 258.76 236.096 258C236.096 256.96 233.696 255.64 231.576 255.64C228.736 255.64 226.296 257.32 225.256 259.36C225.256 258.4 225.296 257.4 225.296 256.76C225.296 256.12 224.256 255.68 223.536 255.68C223.216 255.68 222.936 255.8 222.936 256.04C222.936 256.96 223.056 259.56 223.056 260.32V270.76ZM241.923 250.92C242.843 250.92 243.403 250.32 243.403 249.36C243.403 248.32 242.443 247.16 241.523 247.16C240.523 247.16 240.003 247.8 240.003 248.8C240.003 249.76 240.923 250.92 241.923 250.92ZM240.643 270.8C240.643 271.36 240.563 273.68 240.563 274.32C240.563 274.92 241.643 275.36 242.363 275.36C242.723 275.36 242.963 275.28 242.963 275.04C242.963 274.12 242.843 271.28 242.843 270.8V260.28C242.843 259.32 242.923 257.36 242.923 256.72C242.923 256.12 241.843 255.68 241.123 255.68C240.763 255.68 240.523 255.76 240.523 256C240.523 256.92 240.643 259.52 240.643 260.28V270.8ZM256.471 272.32L251.671 258.84C251.391 258 251.031 256.96 250.871 256.36C250.751 255.96 250.151 255.8 249.551 255.8C248.911 255.8 248.231 256 248.231 256.44C248.231 256.48 248.231 256.56 248.271 256.64C248.751 257.64 249.191 258.52 249.511 259.4L254.631 273.12C255.071 274.16 255.071 274.48 255.471 274.92C255.791 275.24 256.391 275.6 256.911 275.6C257.311 275.6 257.671 275.4 257.831 274.76C258.071 273.96 258.391 273.12 258.711 272.36L264.151 259.52C264.431 258.84 265.031 257.64 265.431 256.92C265.471 256.84 265.511 256.76 265.511 256.68C265.511 256.08 264.471 255.64 263.751 255.64C263.391 255.64 263.111 255.72 263.031 256C262.751 257 262.391 257.96 262.031 258.84L256.471 272.32ZM271.801 266.96C276.201 266.96 279.721 266.4 282.121 265.68C285.321 264.68 285.921 263.72 285.921 261.4C285.921 258.56 284.241 255.64 279.361 255.64C274.161 255.64 270.121 261.08 269.441 264.88C269.441 264.88 269.081 264.92 269.001 264.92C268.521 264.92 268.321 265.12 268.321 265.4C268.321 265.76 268.681 266.28 269.161 266.6V267.2C269.161 272.4 272.281 275.64 276.361 275.64C282.881 275.64 286.001 270.92 286.001 269.92C286.001 269.68 285.881 269.52 285.681 269.52C285.441 269.52 285.161 269.68 284.841 270.04C282.681 272.36 279.801 273.64 276.361 273.64C273.641 273.64 271.321 271.44 271.321 267.08V266.96H271.801ZM271.601 265C272.161 262.12 275.321 257.56 279.321 257.56C282.121 257.56 283.761 259 283.761 261.36C283.761 262.8 283.561 263.28 281.121 263.96C279.321 264.48 276.481 265 272.441 265H271.601ZM305.519 269.88C305.519 272.52 306.719 275.4 307.599 275.4C308.279 275.4 308.999 274.4 308.999 273.8C308.999 273.68 308.999 273.56 308.919 273.48C308.039 272.4 307.559 269.96 307.559 267.6V251.32C307.559 249.92 307.639 248.4 307.639 247.76C307.639 247.12 306.599 246.68 305.919 246.68C305.559 246.68 305.319 246.8 305.319 247.04C305.319 247.96 305.399 249.64 305.399 251.28V258.28C304.359 256.4 302.559 255.64 300.519 255.64C295.359 255.64 290.639 261.28 290.639 267.56C290.639 272.76 293.279 275.64 297.119 275.64C300.279 275.64 303.119 273.84 305.519 269.72V269.88ZM305.399 263.96C305.399 269.08 300.799 273.64 297.119 273.64C294.799 273.64 292.879 271.68 292.879 267.44C292.879 262.76 296.199 257.56 300.559 257.56C301.999 257.56 303.439 258.16 304.439 259.76C304.519 259.92 304.639 259.96 304.799 259.96C305.039 259.96 305.279 259.84 305.399 259.64V263.96ZM318.527 275.32C319.607 275.32 320.247 274.64 320.247 273.52C320.247 272.4 319.127 271.12 318.127 271.12C316.967 271.12 316.407 271.8 316.407 272.96C316.407 274 317.407 275.32 318.527 275.32ZM332.512 275.32C333.592 275.32 334.232 274.64 334.232 273.52C334.232 272.4 333.112 271.12 332.112 271.12C330.952 271.12 330.392 271.8 330.392 272.96C330.392 274 331.392 275.32 332.512 275.32ZM346.496 275.32C347.576 275.32 348.216 274.64 348.216 273.52C348.216 272.4 347.096 271.12 346.096 271.12C344.936 271.12 344.376 271.8 344.376 272.96C344.376 274 345.376 275.32 346.496 275.32Z" fill="#212121"/>
<path d="M55.6738 358.109C57.0806 358.243 58.2597 359.017 59.4004 359.805C61.4766 361.24 63.3588 362.924 65.3668 364.447C67.4164 366.002 69.4877 367.642 71.7049 368.955C73.5108 370.025 74.7852 371.342 76.3369 372.672C76.7081 372.99 76.9901 373.344 77.3281 373.682C77.427 373.781 77.4616 373.84 77.4616 373.663C77.4616 371.429 77.4601 369.195 77.5759 366.963C77.8607 361.475 78.5114 356.014 78.9675 350.541C78.9761 350.437 79.0056 348.624 79.0056 349.359" stroke="#212121" stroke-width="3.32845" stroke-linecap="round"/>
<path d="M15 28C15 66.2592 15 30.0184 15 68.2775C15 99.8752 15.2311 131.12 20.5389 162.377C24.8462 187.742 52.8557 202.77 76.4814 205.395C90.1027 206.909 105.642 207.332 116.854 198.256C122.682 193.538 129.101 188.221 129.101 180.101C129.101 163.106 116.781 149.576 100.175 149.576C74.8226 149.576 60.4791 170.559 54.0182 193.025C48.4098 212.527 48.3185 234.681 48.2332 254.814C48.1808 267.181 47.6023 279.848 49.5256 292.109C51.2161 302.887 55.3606 313.181 58.757 323.496C62.8665 335.977 66.8376 348.478 70.881 360.976C71.7897 363.784 72.9701 367.929 75.9275 368.915" stroke="#212121" stroke-width="3.32845" stroke-linecap="round"/>
</svg>
