<svg width="374" height="297" viewBox="0 0 374 297" fill="none" xmlns="http://www.w3.org/2000/svg">
<path d="M343.89 34.0411L324.684 40.8335C323.42 41.2802 322.013 40.8627 321.198 39.7993L308.802 23.6315C308.158 22.7911 306.815 23.2661 306.842 24.3247L307.367 44.6904C307.401 46.03 306.569 47.2394 305.306 47.6862L286.099 54.4785C285.101 54.8316 285.138 56.2559 286.153 56.5571L305.684 62.3514C306.968 62.7326 307.862 63.8976 307.896 65.2371L308.421 85.6028C308.448 86.6614 309.814 87.0666 310.414 86.1942L321.96 69.4096C322.72 68.3056 324.104 67.8162 325.388 68.1973L344.92 73.9916C345.935 74.2928 346.742 73.119 346.098 72.2786L333.703 56.1108C332.888 55.0473 332.85 53.5798 333.609 52.4758L345.155 35.6913C345.756 34.8188 344.889 33.6881 343.89 34.0411Z" stroke="black" stroke-width="2"/>
<path d="M187 155.057C188.407 151.172 191.412 148.614 194.215 145.684C202.135 137.407 210.358 129.371 217.799 120.661C234.979 100.551 254.473 82.3675 276.729 68" stroke="black" stroke-width="2" stroke-linecap="round" stroke-linejoin="round"/>
<path d="M203 179.057C204.407 175.172 207.412 172.614 210.215 169.684C218.135 161.407 226.358 153.371 233.799 144.661C250.979 124.551 270.473 106.367 292.729 92" stroke="black" stroke-width="2" stroke-linecap="round" stroke-linejoin="round"/>
<path d="M210.818 153.616C235.482 124.523 260.383 91.5847 293.132 71.1396" stroke="black" stroke-width="2" stroke-linecap="round" stroke-linejoin="round"/>
<path d="M343.89 150.041L324.684 156.833C323.42 157.28 322.013 156.863 321.198 155.799L308.802 139.631C308.158 138.791 306.815 139.266 306.842 140.325L307.367 160.69C307.401 162.03 306.569 163.239 305.306 163.686L286.099 170.479C285.101 170.832 285.138 172.256 286.153 172.557L305.684 178.351C306.968 178.733 307.862 179.898 307.896 181.237L308.421 201.603C308.448 202.661 309.814 203.067 310.414 202.194L321.96 185.41C322.72 184.306 324.104 183.816 325.388 184.197L344.92 189.992C345.935 190.293 346.742 189.119 346.098 188.279L333.703 172.111C332.888 171.047 332.85 169.58 333.609 168.476L345.155 151.691C345.756 150.819 344.889 149.688 343.89 150.041Z" stroke="black" stroke-width="2"/>
<path d="M187 271.057C188.407 267.172 191.412 264.614 194.215 261.684C202.135 253.407 210.358 245.371 217.799 236.661C234.979 216.551 254.473 198.367 276.729 184" stroke="black" stroke-width="2" stroke-linecap="round" stroke-linejoin="round"/>
<path d="M203 295.057C204.407 291.172 207.412 288.614 210.215 285.684C218.135 277.407 226.358 269.371 233.799 260.661C250.979 240.551 270.473 222.367 292.729 208" stroke="black" stroke-width="2" stroke-linecap="round" stroke-linejoin="round"/>
<path d="M210.818 269.616C235.482 240.523 260.383 207.585 293.132 187.14" stroke="black" stroke-width="2" stroke-linecap="round" stroke-linejoin="round"/>
<path d="M157.89 98.0411L138.684 104.833C137.42 105.28 136.013 104.863 135.198 103.799L122.802 87.6315C122.158 86.7911 120.815 87.2661 120.842 88.3247L121.367 108.69C121.401 110.03 120.569 111.239 119.306 111.686L100.099 118.479C99.1008 118.832 99.1376 120.256 100.153 120.557L119.684 126.351C120.968 126.733 121.862 127.898 121.896 129.237L122.421 149.603C122.448 150.661 123.814 151.067 124.414 150.194L135.96 133.41C136.72 132.306 138.104 131.816 139.388 132.197L158.92 137.992C159.935 138.293 160.742 137.119 160.098 136.279L147.703 120.111C146.888 119.047 146.85 117.58 147.609 116.476L159.155 99.6913C159.756 98.8188 158.889 97.6881 157.89 98.0411Z" stroke="black" stroke-width="2"/>
<path d="M1 219.057C2.40715 215.172 5.41166 212.614 8.21472 209.684C16.1347 201.407 24.3582 193.371 31.7992 184.661C48.9791 164.551 68.4731 146.367 90.7286 132" stroke="black" stroke-width="2" stroke-linecap="round" stroke-linejoin="round"/>
<path d="M17 243.057C18.4072 239.172 21.4117 236.614 24.2147 233.684C32.1347 225.407 40.3582 217.371 47.7992 208.661C64.9791 188.551 84.4731 170.367 106.729 156" stroke="black" stroke-width="2" stroke-linecap="round" stroke-linejoin="round"/>
<path d="M24.8184 217.616C49.4822 188.523 74.3825 155.585 107.132 135.14" stroke="black" stroke-width="2" stroke-linecap="round" stroke-linejoin="round"/>
</svg>
