<svg width="200" height="200" viewBox="0 0 200 200" fill="none" xmlns="http://www.w3.org/2000/svg">
<mask id="mask0_282_115" style="mask-type:alpha" maskUnits="userSpaceOnUse" x="0" y="0" width="200" height="200">
<rect width="200" height="200" fill="#D9D9D9"/>
</mask>
<g mask="url(#mask0_282_115)">
<path d="M112.509 63.7963C94.9096 57.2482 77.5335 52.0612 62.2248 48.7856C46.9161 45.51 34.2457 44.268 25.5579 45.1914C16.8701 46.1147 12.489 49.1689 12.8794 54.03C13.2698 58.8912 18.4172 65.3778 27.7753 72.8018C37.1335 80.2257 50.3534 88.3101 66.0324 96.1972C81.7115 104.084 99.2649 111.48 116.83 117.599C134.395 123.718 151.317 128.333 165.801 130.954C180.284 133.575 191.789 134.104 199.094 132.485L192.823 129.422C186.034 130.927 175.343 130.435 161.883 127.999C148.423 125.564 132.697 121.275 116.374 115.588C100.05 109.901 83.7371 103.029 69.1662 95.699C54.5953 88.3694 42.3097 80.8564 33.613 73.9572C24.9163 67.0579 20.1328 61.0297 19.77 56.5122C19.4072 51.9947 23.4786 49.1563 31.5524 48.2982C39.6261 47.4401 51.401 48.5944 65.6277 51.6385C79.8544 54.6825 96.0023 59.5029 112.358 65.5882L112.509 63.7963Z" fill="black"/>
<path d="M106.015 111.699C87.7099 114.528 59.5923 120.471 44.5448 125.123C29.4973 129.775 17.5744 134.956 10.041 140.115C2.50758 145.275 -0.355261 150.221 1.7562 154.429C3.86765 158.636 10.8747 161.949 22.0338 164.015C33.1929 166.081 48.0878 166.823 65.1384 166.162C82.1889 165.502 100.759 163.464 118.878 160.264C136.998 157.064 153.99 152.822 168.054 147.988C182.117 143.154 192.726 137.908 198.756 132.807L191.97 133.154C186.366 137.894 176.507 142.77 163.438 147.262C150.368 151.755 134.576 155.697 117.738 158.67C100.899 161.644 83.6414 163.538 67.796 164.152C51.9506 164.765 38.1084 164.076 27.738 162.156C17.3676 160.236 10.8558 157.158 8.8936 153.247C6.93137 149.337 9.59188 144.741 16.5928 139.946C23.5938 135.151 34.674 130.336 48.658 126.013C62.642 121.69 89.0037 115.969 106.015 113.34L106.015 111.699Z" fill="black"/>
<path d="M106.636 112.759C115.778 93.9411 123.738 75.0947 129.672 58.2197C135.607 41.3448 139.294 27.0706 140.342 16.9116C141.391 6.75269 139.762 1.08795 135.628 0.518411C131.494 -0.051124 125.01 4.4958 116.863 13.6767C108.716 22.8577 99.2099 36.3302 89.354 52.6649C79.4981 68.9996 69.6596 87.5872 60.8825 106.456C52.1054 125.324 44.717 143.769 39.5011 159.834C34.2853 175.9 31.4366 188.986 31.2573 197.704L35.1229 191.152C35.2895 183.05 37.9369 170.889 42.784 155.959C47.6312 141.029 54.4975 123.887 62.6542 106.353C70.811 88.8179 79.9541 71.5441 89.1134 56.3639C98.2727 41.1837 107.107 28.6634 114.678 20.1313C122.249 11.5993 128.275 7.37372 132.117 7.903C135.958 8.43229 137.472 13.6967 136.498 23.1376C135.524 32.5785 132.097 45.8438 126.582 61.5261C121.067 77.2084 113.67 94.7227 105.174 112.211L106.636 112.759Z" fill="black"/>
</g>
</svg>
