<svg width="251" height="251" viewBox="0 0 251 251" fill="none" xmlns="http://www.w3.org/2000/svg">
<mask id="mask0_1188_145" style="mask-type:alpha" maskUnits="userSpaceOnUse" x="0" y="0" width="251" height="251">
<rect x="0.941406" y="0.266357" width="250" height="250" fill="white"/>
</mask>
<g mask="url(#mask0_1188_145)">
<path d="M172.066 124.765C172.066 101.006 168.087 77.7432 160.599 57.7233C153.112 37.7034 142.428 21.7623 129.81 11.7824C117.191 1.80247 103.165 -1.79957 89.3872 1.40158C75.6094 4.60273 62.6553 14.4734 52.0545 29.8481C41.4537 45.2228 33.6489 65.4595 29.5617 88.1687C25.4745 110.878 25.2754 135.111 28.9882 158.008C32.7009 180.904 40.1703 201.507 50.5144 217.384C60.8585 233.261 73.6454 243.748 87.3653 247.609L87.7193 243.935C74.4098 240.19 62.0053 230.016 51.9705 214.614C41.9357 199.212 34.6897 179.225 31.088 157.013C27.4863 134.802 27.6793 111.293 31.6444 89.2631C35.6094 67.233 43.1807 47.6015 53.4645 32.6866C63.7483 17.7717 76.315 8.19617 89.6808 5.09074C103.047 1.98532 116.653 5.47964 128.894 15.1611C141.136 24.8426 151.5 40.3069 158.763 59.7282C166.027 79.1494 169.887 101.716 169.887 124.765L172.066 124.765Z" fill="black"/>
<path d="M117.321 85.2733C140.793 77.4316 163.99 71.1495 184.449 67.0935C204.909 63.0375 221.868 61.3588 233.527 62.2356C245.187 63.1124 251.111 66.512 250.673 72.0736C250.235 77.6353 243.45 85.1515 231.038 93.825C218.626 102.498 201.05 112.005 180.175 121.337C159.3 130.669 135.904 139.478 112.47 146.83C89.0362 154.181 66.4381 159.8 47.0734 163.091C27.7087 166.382 12.2998 167.222 2.48144 165.522L10.832 161.895C19.9564 163.474 34.2763 162.693 52.2723 159.635C70.2683 156.577 91.2692 151.354 113.047 144.523C134.824 137.691 156.567 129.505 175.966 120.833C195.366 112.16 211.7 103.325 223.234 95.2646C234.769 87.2042 241.075 80.2192 241.482 75.0506C241.889 69.8821 236.383 66.7228 225.548 65.9079C214.712 65.0931 198.952 66.6531 179.939 70.4225C160.925 74.1918 139.368 80.0299 117.555 87.3174L117.321 85.2733Z" fill="black"/>
<path d="M202.093 217.022C194.941 216.37 185.47 212.366 174.687 205.436C163.903 198.506 152.209 188.908 140.845 177.661C129.481 166.414 118.87 153.938 110.139 141.555C101.409 129.172 94.8829 117.345 91.2549 107.329C87.6269 97.3123 87.0318 89.4802 89.5328 84.6633C92.0337 79.8464 97.5375 78.2245 105.46 79.9695C113.383 81.7145 123.429 86.7614 134.532 94.5748C145.635 102.388 157.382 112.676 168.526 124.348L167.353 126.034C156.997 115.187 146.08 105.626 135.762 98.3651C125.443 91.104 116.107 86.4138 108.745 84.7921C101.382 83.1704 96.2674 84.6777 93.9432 89.1542C91.619 93.6306 92.172 100.909 95.5436 110.218C98.9152 119.526 104.98 130.517 113.093 142.025C121.207 153.532 131.068 165.127 141.629 175.579C152.19 186.031 163.057 194.95 173.079 201.391C183.1 207.831 191.901 211.552 198.548 212.158L202.093 217.022Z" fill="black"/>
</g>
</svg>
