<svg width="251" height="251" viewBox="0 0 251 251" fill="none" xmlns="http://www.w3.org/2000/svg">
<mask id="mask0_1188_143" style="mask-type:alpha" maskUnits="userSpaceOnUse" x="0" y="0" width="251" height="251">
<rect x="0.941406" y="0.266357" width="250" height="250" fill="white"/>
</mask>
<g mask="url(#mask0_1188_143)">
<path d="M122.935 6.70885C107.605 1.12456 91.2599 0.409702 75.5472 4.63628C59.8344 8.86285 45.3086 17.8816 33.4325 30.7842C21.5565 43.6869 12.7497 60.0177 7.89903 78.1321C3.04839 96.2465 2.32521 115.505 5.80233 133.967C9.27945 152.43 16.8341 169.444 27.7054 183.298C38.5767 197.151 52.3807 207.354 67.7273 212.879C83.0739 218.404 99.421 219.056 115.122 214.769C130.824 210.482 145.325 201.407 157.165 188.459L154.516 185.095C143.182 197.489 129.301 206.176 114.27 210.28C99.2401 214.384 83.5916 213.76 68.901 208.471C54.2103 203.183 40.9962 193.416 30.5896 180.154C20.1829 166.893 12.9512 150.605 9.62265 132.932C6.29414 115.258 6.98641 96.8233 11.6297 79.4831C16.2731 62.1429 24.7035 46.51 36.0719 34.1589C47.4404 21.8077 61.3454 13.1744 76.3866 9.12847C91.4278 5.08254 107.074 5.76684 121.749 11.1125L122.935 6.70885Z" fill="black"/>
<path d="M6.50903 85.8859C6.57113 97.5115 11.0666 109.156 20.2866 119.132C29.5065 129.108 42.7338 137.335 58.6361 142.983C74.5384 148.631 92.5542 151.502 110.869 151.306C129.184 151.11 147.151 147.854 162.961 141.866C178.772 135.878 191.866 127.369 200.926 117.197C209.987 107.025 214.693 95.5486 214.571 83.9236C214.448 72.2986 209.502 60.9356 200.231 50.979C190.959 41.0224 177.089 32.3564 161.157 26.7415L162.696 31.6252C177.92 36.9907 187.378 42.9824 196.238 52.4967C205.098 62.0111 209.824 72.8694 209.941 83.978C210.058 95.0866 205.561 106.053 196.903 115.774C188.245 125.494 175.732 133.624 160.624 139.346C145.517 145.068 128.347 148.18 110.846 148.367C93.3444 148.555 76.1288 145.812 60.9329 140.414C45.7369 135.017 33.0972 127.156 24.2868 117.623C15.4764 108.089 10.2209 96.9951 10.1616 85.8859L6.50903 85.8859Z" fill="black"/>
<path d="M161.155 26.7532C155.598 30.2851 151.919 38.824 150.489 51.5101C149.058 64.1962 149.927 80.5815 153.007 99.0157C156.087 117.45 161.27 137.282 168.033 156.515C174.797 175.748 182.902 193.702 191.533 208.57C200.164 223.437 209.016 234.693 217.197 241.203C225.378 247.713 232.6 249.248 238.134 245.654C243.669 242.059 247.321 233.461 248.723 220.726C250.125 207.991 249.228 191.569 246.121 173.114L244.054 171.476C247.023 189.111 247.881 204.804 246.541 216.973C245.201 229.142 241.711 237.358 236.422 240.794C231.133 244.229 224.233 242.762 216.415 236.541C208.597 230.32 200.139 219.564 191.891 205.357C183.644 191.15 175.898 173.993 169.435 155.614C162.972 137.236 158.02 118.284 155.076 100.669C152.133 83.0536 151.303 67.3961 152.67 55.2735C154.037 43.1509 157.552 34.9912 162.862 31.6163L161.155 26.7532Z" fill="black"/>
</g>
</svg>
