<svg width="251" height="251" viewBox="0 0 251 251" fill="none" xmlns="http://www.w3.org/2000/svg">
<mask id="mask0_1188_144" style="mask-type:alpha" maskUnits="userSpaceOnUse" x="0" y="0" width="251" height="251">
<rect x="0.941406" y="0.266357" width="250" height="250" fill="white"/>
</mask>
<g mask="url(#mask0_1188_144)">
<path d="M246.915 239.648C240.274 246.262 230.069 247.766 217.263 244.018C204.457 240.27 189.474 231.392 173.727 218.224C157.98 205.056 141.99 188.032 127.265 168.759C112.54 149.485 99.5672 128.599 89.5708 108.071C79.5743 87.5432 72.8842 68.0515 70.132 51.436C67.3798 34.8205 68.6563 21.6295 73.8411 13.1083C79.0258 4.58706 87.9478 1.0168 99.7645 2.73456C111.581 4.45233 125.903 11.4014 141.378 22.9258L142.703 29.3996C128.218 18.6121 114.812 12.1073 103.75 10.4994C92.6892 8.89147 84.3377 12.2334 79.4845 20.2098C74.6312 28.1862 73.4363 40.5337 76.0125 56.0868C78.5888 71.6399 84.8511 89.8853 94.2084 109.1C103.566 128.316 115.709 147.867 129.492 165.908C143.275 183.949 158.244 199.884 172.984 212.211C187.724 224.537 201.749 232.846 213.736 236.355C225.723 239.864 235.275 238.456 241.492 232.264L246.915 239.648Z" fill="black"/>
<path d="M2.19244 184.433C1.33791 179.249 3.64403 172.898 8.89306 165.98C14.1421 159.062 22.1609 151.806 32.1923 144.896C42.2238 137.986 53.9369 131.65 66.2259 126.487C78.515 121.323 90.9744 117.503 102.428 115.386C113.882 113.269 123.951 112.926 131.687 114.388C139.422 115.851 144.568 119.071 146.638 123.744C148.708 128.418 147.634 134.391 143.518 141.099C139.402 147.808 132.38 155.03 123.114 162.085L120.027 161.665C128.701 155.062 135.274 148.301 139.127 142.022C142.98 135.742 143.985 130.151 142.047 125.776C140.109 121.402 135.293 118.388 128.052 117.019C120.811 115.65 111.385 115.971 100.664 117.953C89.9429 119.934 78.2801 123.51 66.7768 128.343C55.2736 133.176 44.3093 139.107 34.9193 145.575C25.5293 152.044 18.0232 158.836 13.1098 165.312C8.19642 171.787 6.03776 177.732 6.83765 182.585L2.19244 184.433Z" fill="black"/>
<path d="M244.345 136.897C245.199 142.081 242.893 148.432 237.644 155.35C232.395 162.268 224.376 169.524 214.345 176.435C204.313 183.345 192.6 189.68 180.311 194.844C168.022 200.007 155.563 203.827 144.109 205.944C132.656 208.061 122.586 208.404 114.85 206.942C107.115 205.48 101.969 202.26 99.8992 197.586C97.8291 192.912 98.9027 186.94 103.019 180.231C107.135 173.523 114.157 166.3 123.424 159.245L126.51 159.665C117.836 166.269 111.263 173.029 107.41 179.309C103.557 185.588 102.552 191.179 104.49 195.554C106.428 199.929 111.244 202.943 118.485 204.312C125.726 205.681 135.152 205.359 145.873 203.378C156.594 201.396 168.257 197.82 179.76 192.987C191.264 188.154 202.228 182.223 211.618 175.755C221.008 169.287 228.514 162.494 233.427 156.019C238.341 149.543 240.499 143.598 239.699 138.746L244.345 136.897Z" fill="black"/>
</g>
</svg>
