<svg width="251" height="251" viewBox="0 0 251 251" fill="none" xmlns="http://www.w3.org/2000/svg">
<mask id="mask0_1188_148" style="mask-type:alpha" maskUnits="userSpaceOnUse" x="0" y="0" width="251" height="251">
<rect x="0.941406" y="0.266357" width="250" height="250" fill="white"/>
</mask>
<g mask="url(#mask0_1188_148)">
<path d="M2.52631 249.002C13.0537 250.436 24.3732 248.405 35.7891 243.035C47.2051 237.665 58.4763 229.069 68.9102 217.775C79.3441 206.482 88.7203 192.728 96.4626 177.361C104.205 161.994 110.15 145.337 113.932 128.415C117.714 111.492 119.253 94.6611 118.455 78.956C117.658 63.2508 114.539 49.0032 109.292 37.0888C104.045 25.1744 96.7803 15.8448 87.9438 9.67334C79.1073 3.50188 68.886 0.618904 57.9079 1.20159L56.888 6.70802C67.3789 6.15119 77.1467 8.90622 85.591 14.8038C94.0354 20.7014 100.978 29.617 105.992 41.0027C111.006 52.3884 113.986 66.0037 114.749 81.012C115.511 96.0202 114.04 112.104 110.426 128.276C106.812 144.448 101.131 160.365 93.7318 175.05C86.3331 189.736 77.373 202.879 67.4021 213.671C57.4312 224.464 46.6601 232.679 35.7507 237.81C24.8414 242.942 14.0242 244.882 3.96399 243.512L2.52631 249.002Z" fill="black"/>
<path d="M168.041 94.3866C146.83 90.9778 124.687 92.2598 104.502 98.0652C84.3172 103.871 67.0281 113.93 54.892 126.929C42.7558 139.929 36.3364 155.265 36.4717 170.936C36.607 186.607 43.2907 201.885 55.6504 214.775C68.0101 227.664 85.4715 237.567 105.755 243.191C126.039 248.815 148.202 249.898 169.353 246.299C190.503 242.7 209.657 234.586 224.315 223.016C238.973 211.447 248.454 196.959 251.519 181.445L246.801 180.96C243.871 195.79 234.808 209.639 220.797 220.698C206.785 231.758 188.476 239.514 168.258 242.954C148.041 246.394 126.854 245.359 107.465 239.983C88.0761 234.608 71.3848 225.141 59.5702 212.82C47.7555 200.499 41.3666 185.895 41.2372 170.915C41.1079 155.935 47.2442 141.275 58.8452 128.849C70.4461 116.422 86.9727 106.807 106.268 101.257C125.562 95.708 146.729 94.4825 167.005 97.741L168.041 94.3866Z" fill="black"/>
</g>
</svg>
