<svg width="200" height="200" viewBox="0 0 200 200" fill="none" xmlns="http://www.w3.org/2000/svg">
<mask id="mask0_308_146" style="mask-type:alpha" maskUnits="userSpaceOnUse" x="0" y="0" width="200" height="200">
<rect width="200" height="200" fill="#D9D9D9"/>
</mask>
<g mask="url(#mask0_308_146)">
<path d="M89.0094 22.9356C104.268 49.6677 105.119 79.8472 91.4776 110.429C77.8363 141.011 50.1849 170.914 11.3131 197.122L9.19403 196.285C47.7031 170.322 75.0965 140.698 88.6105 110.401C102.124 80.1047 101.281 50.2069 86.1653 23.7243L89.0094 22.9356Z" fill="black"/>
<path d="M195.104 61.2965C183.428 56.382 167.97 54.2035 150.747 55.0454C133.524 55.8874 115.337 59.7106 98.5594 66.016C81.782 72.3215 67.1939 80.8161 56.6995 90.3912C46.205 99.9662 40.2918 110.177 39.7317 119.69C39.1716 129.203 43.9907 137.577 53.5598 143.718C63.129 149.86 77.0036 153.483 93.3725 154.116C109.741 154.748 127.844 152.361 145.318 147.265C162.791 142.169 178.823 134.601 191.321 125.549L188.877 124.735C176.863 133.436 161.452 140.71 144.656 145.609C127.86 150.508 110.458 152.803 94.7239 152.194C78.9894 151.586 65.6525 148.103 56.4542 142.2C47.2559 136.297 42.6236 128.247 43.162 119.103C43.7003 109.958 49.3844 100.144 59.4721 90.9396C69.5599 81.7356 83.5826 73.5702 99.7098 67.5091C115.837 61.448 133.319 57.773 149.875 56.9637C166.43 56.1544 181.29 58.2484 192.513 62.9725L195.104 61.2965Z" fill="black"/>
<path d="M35.1731 32.1089L168.112 6.0069L164.492 8.97758L31.2272 35.347L35.1731 32.1089Z" fill="black"/>
</g>
</svg>
