<svg width="251" height="251" viewBox="0 0 251 251" fill="none" xmlns="http://www.w3.org/2000/svg">
<mask id="mask0_1188_156" style="mask-type:alpha" maskUnits="userSpaceOnUse" x="0" y="0" width="251" height="251">
<rect x="0.941406" y="0.266357" width="250" height="250" fill="white"/>
</mask>
<g mask="url(#mask0_1188_156)">
<path d="M39.553 31.3478C43.0751 64.0701 41.1063 104.791 34.0391 145.395C26.9718 185.999 15.325 223.505 1.41962 250.439L-0.0549798 240.686C12.7389 215.905 23.4547 181.397 29.9571 144.039C36.4594 106.681 38.2708 69.2149 35.0303 39.1081L39.553 31.3478Z" fill="black"/>
<path d="M181.517 250.524C156.872 237.786 138.028 218.012 127.53 193.874C117.032 169.736 115.386 142.396 122.814 115.547C130.242 88.6977 146.386 63.6324 169.066 43.7361C191.746 23.8397 219.87 10.0708 249.639 4.2888L250.042 7.81165C221.083 13.4362 193.725 26.8302 171.663 46.1847C149.6 65.5392 133.896 89.9219 126.67 116.04C119.444 142.158 121.046 168.753 131.258 192.234C141.47 215.715 159.801 234.95 183.775 247.342L181.517 250.524Z" fill="black"/>
<path d="M33.3589 34.6174C48.2409 27.5618 64.4424 23.875 80.4337 23.9052C96.425 23.9353 111.679 27.6814 124.754 34.7898C137.83 41.8981 148.296 52.1342 155.165 64.5316C162.034 76.929 165.079 91.0787 164.013 105.645C162.946 120.211 157.804 134.713 149.07 147.782C140.336 160.85 128.3 172.055 114.098 180.337C99.895 188.619 83.9947 193.705 67.8979 195.116C51.8011 196.527 36.0389 194.215 22.0992 188.4L25.1295 183.368C38.1778 188.812 52.9322 190.976 67.9998 189.655C83.0673 188.335 97.9509 183.573 111.245 175.821C124.54 168.069 135.806 157.581 143.982 145.348C152.157 133.114 156.971 119.54 157.969 105.905C158.967 92.2701 156.117 79.0251 149.687 67.4204C143.257 55.8157 133.46 46.2341 121.221 39.5803C108.981 32.9265 94.7028 29.4199 79.734 29.3917C64.7652 29.3635 49.5997 32.8145 35.6692 39.419L33.3589 34.6174Z" fill="black"/>
</g>
</svg>
