<svg width="241" height="200" viewBox="0 0 241 200" fill="none" xmlns="http://www.w3.org/2000/svg">
<mask id="mask0_308_127" style="mask-type:alpha" maskUnits="userSpaceOnUse" x="40" y="0" width="201" height="200">
<rect x="40.9976" width="200" height="200" fill="#D9D9D9"/>
</mask>
<g mask="url(#mask0_308_127)">
<path d="M94.0518 4.1865C98.4714 32.9413 96.0009 68.7244 87.1327 104.405C78.2644 140.086 63.6495 173.044 46.2005 196.712L45.0171 191.232C61.5743 168.774 75.4421 137.5 83.857 103.643C92.2719 69.7864 94.6161 35.8324 90.4224 8.54751L94.0518 4.1865Z" fill="black"/>
<path d="M239.644 13.1107C216.759 37.1852 195.35 69.722 179.682 104.237C164.015 138.753 155.24 172.712 155.106 199.348L158.927 195.681C159.055 170.16 167.462 137.622 182.474 104.552C197.485 71.4814 217.998 40.3068 239.925 17.2403L239.644 13.1107Z" fill="black"/>
<path d="M217.307 152.698C192.709 148.027 165.154 139.023 140.131 127.481C115.109 115.939 95.3651 105.363 83.199 93.0772L83.5543 91.4173C94.7479 102.721 120.021 115.078 143.043 125.697C166.065 136.317 191.418 144.601 214.05 148.899L217.307 152.698Z" fill="black"/>
</g>
<path d="M39.6037 73.435C47.5678 80.8725 59.3116 87.2453 73.3022 91.7215C87.2928 96.1976 102.88 98.5692 118.029 98.5265C133.179 98.4839 147.186 96.029 158.223 91.4824C169.26 86.9358 176.814 80.5087 179.899 73.04C182.983 65.5714 181.455 57.4082 175.514 49.6162C169.573 41.8241 159.495 34.7651 146.595 29.3608C133.696 23.9564 118.574 20.4577 103.204 19.3215C87.8338 18.1852 72.9298 19.4641 60.4373 22.9912L63.4903 25.4392C75.1269 22.1537 89.0099 20.9624 103.327 22.0209C117.644 23.0793 131.73 26.3383 143.746 31.3724C155.761 36.4065 165.149 42.9818 170.683 50.2401C176.217 57.4983 177.641 65.1022 174.767 72.0591C171.894 79.0161 164.858 85.0029 154.577 89.238C144.296 93.4731 131.248 95.7598 117.137 95.7995C103.025 95.8392 88.506 93.6302 75.4739 89.4607C62.4418 85.2912 51.5025 79.355 44.0841 72.427L39.6037 73.435Z" fill="black"/>
</svg>
