<svg width="251" height="251" viewBox="0 0 251 251" fill="none" xmlns="http://www.w3.org/2000/svg">
<mask id="mask0_1188_147" style="mask-type:alpha" maskUnits="userSpaceOnUse" x="0" y="0" width="251" height="251">
<rect x="0.941406" y="0.266357" width="250" height="250" fill="white"/>
</mask>
<g mask="url(#mask0_1188_147)">
<path d="M249.898 81.5112C248.592 64.5409 240.047 48.2215 225.346 34.6167C210.645 21.0118 190.447 10.7326 167.307 5.07885C144.167 -0.574913 119.123 -1.34926 95.3436 2.85372C71.5638 7.0567 50.1158 16.0482 33.7117 28.6913C17.3076 41.3344 6.68434 57.0611 3.18519 73.8828C-0.313964 90.7044 3.46818 107.866 14.0534 123.196C24.6385 138.526 41.5513 151.337 62.653 160.009C83.7546 168.681 108.097 172.824 132.603 171.914L132.399 169.26C108.651 170.141 85.0614 166.126 64.6125 157.723C44.1636 149.319 27.774 136.905 17.5163 122.049C7.25858 107.193 3.59343 90.5623 6.98434 74.261C10.3752 57.9598 20.6699 42.7195 36.5665 30.4676C52.4631 18.2156 73.2477 9.50224 96.2918 5.42928C119.336 1.35632 143.605 2.10671 166.029 7.58557C188.454 13.0644 208.027 23.0257 222.273 36.2097C236.519 49.3936 244.799 65.2082 246.065 81.6535L249.898 81.5112Z" fill="black"/>
<path d="M106.459 3.3996C96.5293 6.24817 90.4647 15.1074 89.0526 28.8263C87.6406 42.5452 90.9464 60.4896 98.5407 80.3281C106.135 100.167 117.667 120.982 131.637 140.071C145.608 159.159 161.372 175.638 176.882 187.366L176.338 182.919C161.658 171.817 146.736 156.219 133.511 138.15C120.287 120.082 109.371 100.378 102.183 81.5995C94.9944 62.8208 91.8652 45.8351 93.2018 32.8491C94.5384 19.8631 107.46 5.54385 116.859 2.84746L106.459 3.3996Z" fill="black"/>
<path d="M75.3251 90.0074C73.5626 94.2966 77.3145 99.5652 86.0934 105.129C94.8722 110.692 108.272 116.294 124.552 121.205C140.832 126.116 159.24 130.111 177.384 132.669C195.528 135.227 212.569 136.232 226.293 135.551L220.239 132.771C207.894 133.383 192.566 132.479 176.246 130.178C159.925 127.877 143.368 124.284 128.724 119.866C114.08 115.449 102.027 110.41 94.1302 105.406C86.2337 100.401 82.8588 95.6624 84.4441 91.8043L75.3251 90.0074Z" fill="black"/>
<path d="M131.918 169.235C143.386 169.093 154.659 171.308 164.309 175.602C173.959 179.896 181.554 186.076 186.133 193.358C190.712 200.641 192.069 208.701 190.033 216.518C187.997 224.336 182.66 231.559 174.696 237.276C166.732 242.992 156.498 246.945 145.29 248.634C134.082 250.323 122.402 249.673 111.727 246.765C101.053 243.857 91.8634 238.823 85.3207 232.299C78.778 225.774 75.176 218.053 74.9704 210.111L78.655 210.065C78.8476 217.502 82.2206 224.733 88.3476 230.843C94.4745 236.953 103.08 241.667 113.076 244.39C123.073 247.113 134.01 247.722 144.506 246.141C155.002 244.559 164.586 240.857 172.044 235.504C179.502 230.151 184.5 223.386 186.407 216.065C188.313 208.745 187.042 201.197 182.754 194.377C178.466 187.557 171.354 181.77 162.317 177.749C153.28 173.728 142.724 171.653 131.984 171.787L131.918 169.235Z" fill="black"/>
</g>
</svg>
