<svg width="251" height="251" viewBox="0 0 251 251" fill="none" xmlns="http://www.w3.org/2000/svg">
<mask id="mask0_1188_146" style="mask-type:alpha" maskUnits="userSpaceOnUse" x="0" y="0" width="251" height="251">
<rect x="0.941406" y="0.266357" width="250" height="250" fill="white"/>
</mask>
<g mask="url(#mask0_1188_146)">
<path d="M122.534 0.54718C122.745 25.6579 128.04 55.5786 137.563 85.4761C147.086 115.374 160.282 143.502 175.018 165.318C189.755 187.134 205.172 201.363 218.779 205.707C232.386 210.052 243.389 204.258 250.01 189.261L247.192 183.863C240.88 198.16 230.391 203.683 217.42 199.542C204.448 195.4 189.751 181.835 175.702 161.038C161.654 140.241 149.074 113.426 139.996 84.9242C130.917 56.4227 125.87 27.8991 125.668 3.96084L122.534 0.54718Z" fill="black"/>
<path d="M32.5435 244.464C48.0965 248.139 64.5734 248.777 80.4187 246.319C96.264 243.862 110.955 238.388 123.105 230.416C135.254 222.444 144.462 212.236 149.857 200.756C155.253 189.276 156.66 176.903 153.944 164.805C151.228 152.707 144.479 141.283 134.335 131.611C124.191 121.94 110.986 114.34 95.9672 109.53C80.9481 104.719 64.6103 102.856 48.4963 104.118C32.3823 105.379 17.0238 109.722 3.87073 116.738L6.0181 119.004C18.6662 112.258 33.435 108.081 48.9303 106.868C64.4256 105.655 80.1362 107.447 94.5787 112.072C109.021 116.698 121.719 124.006 131.474 133.306C141.228 142.606 147.718 153.592 150.329 165.226C152.941 176.859 151.589 188.757 146.4 199.796C141.211 210.835 132.357 220.651 120.674 228.318C108.991 235.984 94.8641 241.247 79.6271 243.61C64.3901 245.974 48.5458 245.36 33.5901 241.826L32.5435 244.464Z" fill="black"/>
<path d="M134.831 16.7295C119.279 13.0545 102.802 12.4159 86.9563 14.8739C71.111 17.3318 56.4201 22.8052 44.2705 30.7774C32.1209 38.7496 22.9135 48.9574 17.5176 60.4373C12.1216 71.9172 10.7152 84.2902 13.4311 96.3884C16.147 108.487 22.8955 119.911 33.0396 129.582C43.1837 139.254 56.3887 146.853 71.4078 151.664C86.4269 156.474 102.765 158.337 118.879 157.076C134.993 155.815 150.351 151.471 163.504 144.456L161.235 142.061C148.616 148.792 133.88 152.959 118.42 154.169C102.96 155.379 87.2849 153.592 72.8751 148.977C58.4653 144.361 45.7961 137.07 36.0636 127.791C26.331 118.512 19.8563 107.551 17.2506 95.9439C14.6449 84.3366 15.9943 72.4655 21.1713 61.4514C26.3483 50.4373 35.1821 40.6436 46.8388 32.9949C58.4954 25.3461 72.5903 20.0948 87.7928 17.7365C102.995 15.3783 118.804 15.991 133.726 19.5168L134.831 16.7295Z" fill="black"/>
</g>
</svg>
